<?xml version="1.0" encoding="UTF-8"?>
<svg xmlns="http://www.w3.org/2000/svg" width="802.1" height="672.5" version="1.1" viewBox="0 0 802.1 672.5">
  <defs>
    <style>
      .cls-1 {
        stroke-width: 1.1px;
      }

      .cls-1, .cls-2, .cls-3 {
        fill: none;
      }

      .cls-1, .cls-2, .cls-3, .cls-4 {
        stroke: #0c050e;
        stroke-miterlimit: 10;
      }

      .cls-5 {
        fill: #8c2cbf;
      }

      .cls-6 {
        fill: #686767;
      }

      .cls-7 {
        fill: #0c050e;
      }

      .cls-2, .cls-4 {
        stroke-width: 4.3px;
      }

      .cls-3 {
        stroke-width: 4.5px;
      }

      .cls-4 {
        fill: #757575;
      }

      .cls-8 {
        fill: #ebe4d7;
      }

      .cls-9 {
        fill: #fcfaf3;
      }

      .cls-10 {
        fill: #6d269b;
      }
    </style>
  </defs>
  <!-- Generator: Adobe Illustrator 28.6.0, SVG Export Plug-In . SVG Version: 1.2.0 Build 709)  -->
  <g>
    <g id="Layer_1">
      <line class="cls-1" x1="58.4" y1="432.4" x2="58.1" y2="429.8"/>
      <path class="cls-5" d="M789.8,502.7c-22.4-98.1-72.8-84-66-107.2h0c1.4-3.8,3.5-7.2,6.2-10.1,21.1-22.5,32.8-89.1,32.8-120.6v-49.1c0-121.7-38.4-207.1-215.6-207.1h-26.6c-181.2,0-214.9,99.8-214.9,207.7v48.5c0,32.5,13.8,99.3,36.2,122.2,2.1,2.1,3.6,4.7,4.4,7.5h0c1.5,4.9.4,10.3-2.8,14.2-7.2,8.8-26.4,27.1-49.2,20.8-5.1,4.1-9.9,8.5-14.4,13.2-6.8,7.2-13,15.1-17.6,23.9s-7.4,18.5-8.6,28.4c-1.1,8.7-.8,17.6.7,26.2,22.9,6.1,50.5,8.3,83.7,4.6,0,0-8.5,22.6-5.8,56.8l397.4,11.4s82.3,6.7,59.9-91.5l.2.2Z"/>
      <path class="cls-2" d="M789.8,502.7c-22.4-98.1-72.8-84-66-107.2h0c1.4-3.8,3.5-7.2,6.2-10.1,21.1-22.5,32.8-89.1,32.8-120.6v-49.1c0-121.7-38.4-207.1-215.6-207.1h-26.6c-181.2,0-214.9,99.8-214.9,207.7v48.5c0,32.5,13.8,99.3,36.2,122.2,2.1,2.1,3.6,4.7,4.4,7.5h0c1.5,4.9.4,10.3-2.8,14.2-7.2,8.8-26.4,27.1-49.2,20.8-5.1,4.1-9.9,8.5-14.4,13.2-6.8,7.2-13,15.1-17.6,23.9s-7.4,18.5-8.6,28.4c-1.1,8.7-.8,17.6.7,26.2,22.9,6.1,50.5,8.3,83.7,4.6,0,0-8.5,22.6-5.8,56.8l395,11.4s84.7,6.7,62.3-91.5l.2.2Z"/>
      <g>
        <path class="cls-9" d="M661.4,290.4c0,25.9-16.7,33.7-39.8,35.8-6,.6-12.4.7-19.1.7-10.7,0-20.7-.4-29.3-2.2-17.7-3.5-29.6-12.5-29.6-34.4,0-32.5,26.4-58.9,58.9-58.9s58.9,26.4,58.9,58.9h0Z"/>
        <path class="cls-8" d="M660.5,289.6c0,1.9,0,3.8-.3,5.6-2.9-28.3-27.7-50.4-57.8-50.4s-54.8,22.1-57.8,50.4c-.2-1.9-.3-3.7-.3-5.6,0-31,26-56,58-56s58,25.1,58,56h.2Z"/>
        <path class="cls-3" d="M661.4,290.4c0,32.5-27.2,36.6-59.8,36.6s-58.1-4-58.1-36.6,26.4-58.9,58.9-58.9,58.9,26.4,58.9,58.9h0Z"/>
        <path class="cls-7" d="M625,306.5c0,7.2-1.3,13.9-3.5,19.8-6,.6-12.4.7-19.1.7-10.7,0-20.7-.4-29.3-2.2-1.9-5.5-2.9-11.8-2.9-18.4,0-22.5,12.3-40.8,27.4-40.8s27.4,18.3,27.4,40.8h0Z"/>
        <path class="cls-9" d="M465.1,290.4c0,21.7-11.8,30.8-29.3,34.3-8.7,1.8-18.8,2.2-29.6,2.2s-12.9-.2-18.8-.7c-23.3-2.1-40.1-9.9-40.1-35.9s26.4-58.9,58.9-58.9,58.9,26.4,58.9,58.9h0Z"/>
        <path class="cls-8" d="M348.2,289.6c0,1.9,0,3.8.3,5.6,2.9-28.3,27.7-50.4,57.8-50.4s54.8,22.1,57.8,50.4c.2-1.9.3-3.7.3-5.6,0-31-26-56-58-56s-58,25.1-58,56h-.2Z"/>
        <path class="cls-3" d="M347.3,290.4c0,32.5,27.2,36.6,59.8,36.6s58.1-4,58.1-36.6-26.4-58.9-58.9-58.9-58.9,26.4-58.9,58.9h0Z"/>
        <path class="cls-7" d="M465.1,220c-17-13-37.9-18.8-59.1-18.8-15.8-.2-31.6,2.1-45.4,10.1-4.6,2.6-9,5.6-13.4,8.8,3.7-3.9,7.7-7.5,12.2-10.7,13.4-9.8,30.4-13,46.6-12.8,21.6,0,44.3,7.3,59,23.5h0Z"/>
        <path class="cls-7" d="M541.7,220c14.7-16.2,37.5-23.6,59-23.5,16.3-.2,33.3,3.1,46.6,12.8,4.4,3.2,8.5,6.7,12.2,10.7-4.3-3.2-8.7-6.2-13.4-8.8-13.8-8-29.6-10.3-45.4-10.1-21.1,0-42,5.9-59.1,18.8h.1Z"/>
        <path class="cls-7" d="M438.8,306.5c0,6.6-1,12.8-2.9,18.3-8.7,1.8-18.8,2.2-29.6,2.2s-12.9-.2-18.8-.7c-2.2-5.9-3.5-12.6-3.5-19.8,0-22.5,12.3-40.8,27.4-40.8s27.4,18.3,27.4,40.8h0Z"/>
      </g>
      <path class="cls-7" d="M714,223.6s42.7,13.4,54.8,25.4,9,39.5-2.6,33.1,3-14.7-4.7-22.3c-7.7-7.6-54.3-16.4-54.3-16.4l3.1-11.1,3.8-8.8h0Z"/>
      <path class="cls-10" d="M503.4,458.7s-71.8,5.7-100.9,69.8l13.5.8s8.4-19.9,21.3-30.5,34.2-28.9,66.1-29.2v-10.9h0Z"/>
      <path class="cls-10" d="M391.8,437s-24.7,41.3-27.4,91.5l12.1-.9s-.4-28.7,4.4-50.3c4.8-21.6,10.9-40.3,10.9-40.3Z"/>
      <g>
        <path class="cls-4" d="M597.9,581.4l-225.4,67.6h-.4l-311.1-33.2c-1.4-.2-1.6-2.2-.2-2.5l210.3-56.5,326.8,24.3c.2,0,.2.3,0,.4h0Z"/>
        <path class="cls-7" d="M428.6,622l-23.7,7.1h-30.2c-1.5,0-1.8-2.1-.4-2.6l23.7-7.1h30.2c1.5,0,1.8,2.1.4,2.6Z"/>
        <path class="cls-7" d="M464,610.6l-23.7,7.1h-30.2c-1.5,0-1.8-2.1-.4-2.6l23.7-7.1h30.2c1.5,0,1.8,2.1.4,2.6Z"/>
        <path class="cls-7" d="M499.4,599.2l-23.7,7.1h-30.2c-1.5,0-1.8-2.1-.4-2.6l23.7-7.1h30.2c1.5,0,1.8,2.1.4,2.6Z"/>
        <path class="cls-7" d="M384.3,622l-23.7,7.1h-30.2c-1.5,0-1.8-2.1-.4-2.6l23.7-7.1h30.2c1.5,0,1.8,2.1.4,2.6Z"/>
        <path class="cls-7" d="M419.7,610.6l-23.7,7.1h-30.2c-1.5,0-1.8-2.1-.4-2.6l23.7-7.1h30.2c1.5,0,1.8,2.1.4,2.6h0Z"/>
        <path class="cls-7" d="M455.1,599.2l-23.7,7.1h-30.2c-1.5,0-1.8-2.1-.4-2.6l23.7-7.1h30.2c1.5,0,1.8,2.1.4,2.6Z"/>
        <path class="cls-1" d="M340.2,622l-23.7,7.1h-30.2c-1.5,0-1.8-2.1-.4-2.6l23.7-7.1h30.2c1.5,0,1.8,2.1.4,2.6Z"/>
        <path class="cls-1" d="M375.6,610.6l-23.7,7.1h-30.2c-1.5,0-1.8-2.1-.4-2.6l23.7-7.1h30.2c1.5,0,1.8,2.1.4,2.6Z"/>
        <path class="cls-7" d="M411,599.2l-23.7,7.1h-30.2c-1.5,0-1.8-2.1-.4-2.6l23.7-7.1h30.2c1.5,0,1.8,2.1.4,2.6h0Z"/>
        <path class="cls-4" d="M598.9,581.3v13.7s0,.2,0,.2l-226.3,67.9h-.4l-316.8-33.8c-.7,0-1.2-.6-1.2-1.3v-11.5c0-.8.7-1.4,1.4-1.3l316.6,33.8h.4l226.2-67.8c0,0,.2,0,.2.2h0Z"/>
        <path class="cls-4" d="M371,648.9l-315.9-33.7c-.6,0-1-.5-1.1-1.1L12.2,385.8c0-.4.3-.7.7-.7l316.1,33.8c.7,0,1.4.6,1.5,1.4l41.6,227.5c.1.6-.4,1.2-1,1.1h-.1Z"/>
        <path class="cls-6" d="M379.8,646.4l-6.4,2.3c-.6.2-1.2-.2-1.3-.7l-41.7-227.6c-.1-.7-.7-1.3-1.5-1.4L14.6,385.4c-.6,0-.7-1-.1-1.2l5.6-2h.3l316.8,33.8c.7,0,1.4.6,1.5,1.4l41.7,227.9c0,.5-.2.9-.6,1.1h0Z"/>
        <path class="cls-2" d="M379.8,646.4l-6.4,2.3c-.6.2-1.2-.2-1.3-.7l-41.7-227.6c-.1-.7-.7-1.3-1.5-1.4L14.6,385.4c-.6,0-.7-1-.1-1.2l5.6-2h.3l316.8,33.8c.7,0,1.4.6,1.5,1.4l41.7,227.9c0,.5-.2.9-.6,1.1h0Z"/>
      </g>
      <path class="cls-7" d="M396.5,426.2c-10.2,28.7-15.6,58.9-17.2,89.3-.2,4.3-.3,8.7-.5,13h-4.3c0-8.6,0-17.8.9-26.4,2.5-25.7,7.9-53.5,21.2-75.9h-.1Z"/>
      <path class="cls-7" d="M505.3,429c1.3,6.8,1.2,13.6,1.2,20.4s-.2,13.5-.9,20.2h-4.3c-.5-6.8-.3-13.6.2-20.4.6-6.9,1.3-13.7,3.8-20.2h0Z"/>
      <path class="cls-10" d="M608.8,448.5s-5.1,31.9,17.1,32.3c30.8.5,33.3-13.8,39.3-7.9,5,4.9,2.9,6.7-2.4,13.2,0,0-12,10.7-41.3-1.1,0,0-12.6,1.7-10.8-14.7s-1.9-21.8-1.9-21.8h0Z"/>
      <path class="cls-7" d="M605.8,429c5.8,12.1,6.7,25.8,7.4,39,0,4.4,0,8.9-.3,13.3h-4.3c-.8-8.6-1.2-17.4-1.8-26-.6-8.8-1.4-17.4-1-26.3h0Z"/>
      <path class="cls-5" d="M747.2,422.1s39.2,24.9,46.5,106.4c7.2,81.5-121.1,83.1-225.2,36.8-47.4-21.1-127,33.5-147.9,24.2-28.1-12.6-10.5-111.2,83.4-119.9,93.9-8.7,150.1,43.3,164.7,8.3"/>
      <path class="cls-10" d="M445.9,586.7c6.8-2.3,25.8-23.6,53.6-36.2,19.3-8.7,45.6-12.4,63.8-6.3,44.6,14.9,116.5,62.9,166.4,49.8,0,0-24.8,8.8-84.1-4-59.2-12.7-84.1-31.2-100.2-29.5-16.1,1.7-31.5,0-88.6,22.5l-11,3.7h.1Z"/>
      <path class="cls-7" d="M668.7,477.8c-6.1,22.8-34.8,12.3-50.9,8.4-35.7-10.3-72.7-18-109.9-14.7-9.2.7-18.3,2.2-27.1,4.8-26.4,7.6-49.4,26.3-61.2,51.2-5.8,12.2-9.4,25.9-8.4,39.4.7,7.7,3.1,16.4,10.3,20,4.2,1.7,9.3.7,13.9-.2,36.1-9.5,70.3-29.1,108.6-29,8.5,0,17.2,1.5,25,4.9l3.2,1.4c49.8,21.1,108.6,35.6,162.5,26.4,33.7-6.2,60.4-25.4,56.2-62.9l-.8-6.9c-2.4-20.5-7.4-41.2-16.4-59.9-6.5-13.3-14.8-26.1-26.3-35.5-1.4-1.1-4.1-3.2-5.5-4.4-.9-.7-1.8-1.4-2.6-1.8l2.1-3.8c1.2.7,2.2,1.4,3.1,2.2,1.4,1.1,4.2,3.2,5.5,4.3,12.2,9.8,21,23.1,27.9,37,10.4,21.3,15.5,44.9,17.9,68.4,3.1,26.6-8.7,48.1-32.9,59.8-54.9,25.7-139.6,5.4-193-17.8l-3.2-1.4c-7.2-3.1-15.1-4.3-22.9-4.4-37.6,0-71.5,19.7-107.4,28.8-5,1-10,1.9-15.2.6-10.8-3.5-14.5-15.2-15.4-25.1-1.1-14.5,2.7-29.1,9-42.1,12.5-26.1,36.7-45.7,64.4-53.6,9.2-2.7,18.7-4.2,28.1-4.9,37.8-3.2,75.3,4.6,111.4,15.2,8.9,2.4,17.9,4.9,27,5.8,9.8,1.1,17.4-.9,22.7-10h0l.3-.2Z"/>
      <path class="cls-7" d="M189.5,563c-12.8-1.4-21.3-9.1-23.3-20.1-.6-3.1,0-6.2,1.3-8.9,2.3-4.6,2.6-10.1.5-14.8s-.9-2.5-1.1-3.8c-1.4-7.9,7.2-14.9,16-13.8,9.1,1.1,14.7,6.5,16,13.8,0,.4.1.7.1,1.1.3,5,2.6,9.7,6.3,13,3.9,3.5,6.4,8.1,7.4,13.4,2,10.9-9.9,21.5-23.3,20.1h.1Z"/>
      <path class="cls-7" d="M182.2,482.3c-2,6.9-1,13.9-.1,20.8l-4.2.9c-2-7.3-.8-16,4.4-21.7h0Z"/>
      <path class="cls-7" d="M179.1,502.6s-5.6-13.8-20.5-14.5c0,0,1.8,17.4,20.5,14.5Z"/>
      <path class="cls-7" d="M716.8,221s-12.6-2.6-25.5-4.5c-10.8-1.5-21.9-2.3-25.3-2.5-6.4-.5-12.8-.7-13.7-.7h-71.2c-18.1,0-34.1,8.6-44.3,21.9h-60.7c-10.2-13.3-26.2-21.9-44.3-21.9h-71.2c-.9,0-7.3.1-13.8.7-3.3.3-14,1.1-24.6,2.6-13,1.8-26.1,4.4-26.1,4.4-3.9.8-6.7,4.2-6.7,8.2v16.8c0,2.6,1.2,5,3.2,6.6l6,4.6c3.7,2.9,5.9,7.4,5.9,12.1v12.2c0,43.3,35.1,78.4,78.4,78.4h22.1c43.6,0,79.3-33.9,82.2-76.8h0c0-1.7,2.1-19,18-19s20.2,19.1,20.2,19.1c2.9,42.9,38.6,76.8,82.2,76.8h22.1c43.3,0,78.4-35.1,78.4-78.4v-12.2c0-4.7,2.2-9.2,5.9-12.1l6-4.6c2-1.6,3.2-4,3.2-6.6v-16.8c0-4-2.8-7.4-6.7-8.2h.3ZM467.2,280.1c0,33.3-27,60.3-60.3,60.3h-22.3c-31.6,0-57.3-25.6-57.3-57.3v-29.1c0-12.5,10.1-22.6,22.6-22.6h79.6c20.8,0,37.7,16.9,37.7,37.7v10.9h0ZM685.8,283.1c0,31.6-25.6,57.3-57.3,57.3h-22.3c-33.3,0-60.3-27-60.3-60.3v-10.9c0-20.8,16.9-37.7,37.7-37.7h79.6c12.5,0,22.6,10.1,22.6,22.6v29.1h0Z"/>
    </g>
  </g>
</svg>