<?xml version="1.0" encoding="UTF-8"?>
<svg xmlns="http://www.w3.org/2000/svg" width="617.4" height="878.8" version="1.1" viewBox="0 0 617.4 878.8">
  <defs>
    <style>
      .cls-1 {
        fill: #c465db;
      }

      .cls-1, .cls-2, .cls-3, .cls-4, .cls-5 {
        stroke: #0c050e;
        stroke-miterlimit: 10;
      }

      .cls-1, .cls-3, .cls-5 {
        stroke-width: 4px;
      }

      .cls-6 {
        fill: #8c2cbf;
      }

      .cls-7 {
        fill: #0c050e;
      }

      .cls-8 {
        fill: #6d96cf;
      }

      .cls-9 {
        fill: #f8defd;
      }

      .cls-2 {
        stroke-width: 3.7px;
      }

      .cls-2, .cls-3, .cls-4 {
        fill: none;
      }

      .cls-4 {
        stroke-width: 3px;
      }

      .cls-5 {
        fill: #611c72;
      }

      .cls-10 {
        fill: #fcfaf3;
      }

      .cls-11 {
        fill: #569ce2;
      }

      .cls-12 {
        fill: #507dab;
      }

      .cls-13 {
        fill: #6d269b;
      }

      .cls-14 {
        fill: #ede6d9;
      }
    </style>
  </defs>
  <!-- Generator: Adobe Illustrator 28.6.0, SVG Export Plug-In . SVG Version: 1.2.0 Build 709)  -->
  <g>
    <g id="Layer_1">
      <g id="Layer_1-2" data-name="Layer_1">
        <g>
          <path class="cls-11" d="M129.3,200.1l-19.7,2.3v-7.6l-.6-6.1s1.9-38.4,20.5-66.5c18.6-28.2,50.9-70.5,97.3-88.8,46.4-18.3,67.2-23.9,112.6-23.5s63.9,5.5,87.8,14c23.9,8.5,60.9,19.3,104.9,70.3,40.2,46.6,40.3,92.3,39.7,100s-.8,8.3-.8,8.3l-11.3-1.5h-6.7s-2-16.3-3.7-23.2c0,0-10.4-31.7-32.3-52.6-21.9-20.9-26.3-23.3-68.8-42.6-11-5-27.4-9.2-39.5-11.5-34.6-6.5-68.3-4.5-68.3-4.5,0,0-67.7-3.6-122.4,22.2-10.7,5-20.9,11.1-31.1,16.7,0,0-45.2,24.2-57.3,87.3,0,.3-.1,7-.2,7.3h-.1Z"/>
          <path class="cls-11" d="M122.3,334.6s10.6,2.1,9.6-4.3c-1-6.5,0-126.8,0-126.8,0,0,1-3.4-15.4-1.5s-26.2,13.8-30.1,18.7c-3.8,4.9-11.2,19-10.1,35.5,0,0,19.2-.5,25.8,15.1,6.6,15.6,3.8,19.8,1.3,41.7l-3.3,14.5s10.6,7.1,22.2,7.1h0Z"/>
          <path class="cls-3" d="M148.2,206.9v122c0,3.1-2.3,5.7-5.2,5.7h-18.5c-26.6,0-48.1-23.6-48.1-52.8v-27.8c0-23.2,13.6-42.8,32.5-49.9,4.9-1.8,10.1-2.8,15.6-2.8h18.5c2.8,0,5.2,2.5,5.2,5.7h0Z"/>
          <path class="cls-6" d="M289.9,657.6c.5,7.7,1.5,65.3,9.4,120.3,10.8,76,108.4,107.8,136.5,90.6,35.4-21.6-.3-44-25.3-95.3-19.5-40.1-21.3-59-19.2-120.6.8-24.4,2-50.9,3.1-73.2l13.5,4c1.9,12.9,3.6,26.5,4.3,38.9,1.5,28.4.5,88.6,21.4,128,16.5,31.1,38,59.4,75.2,81.5,14.5,8.6,30.6,14.1,47.4,15.8,3,.3,6,.4,9,.5,29.5.2,59.6-19.8,11.2-64.7-39.9-36.9-55.3-49.6-60.1-90.4-4.8-40.8,1-86.2-2.2-117.8,33.6-22,36.6-53.5,31.1-85.6-4.7-27.2-36.6-70.7-36.6-70.7-9.9-14.3-6.7-24.3-3-28.2l3.4-5c10.6-18.7,25.8-58.5,25.8-86.2l.7-60.1c0-4.1-.5-18.9-.8-22.9-2.6-39.8-13.5-88.8-54.8-119-27-19.7-69.4-25.3-104.8-29.1h-58.6c-39.3,0-96.7,9.7-127.5,42.3-28.8,30.5-45.1,74.5-40.8,119-.3,4,0,8.7,0,12.8l1.3,67.5c0,10.1,5.3,30.6,8.2,39.6,4.9,15.1,9.2,29,20.6,39.6,2.9,2.7,5.9,5.9,6.7,9.8.7,3.2,1.1,7.1.4,10.4-.3,1.5-.7,3-1.3,4.6-3.1,8.7-9.7,15.6-18,19.7-14.2,6.9-40.6,12.7-65.7-19.3-32.2-41.1,37.4-131-8.4-155.4-35.1-18.7-77.2,70-80.6,120.4s-2.3,136.3,101.1,159.6c2.2.5,4.5.8,6.8,1,10.4.8,39.1,1.4,62.7-11.9,0,0-1.9,44.5-1.4,63,0,0,1.6,57.3,3,80.8.9,14.6-1.1,36-46.5,88.4-19.8,22.8-50.3,46.5-50.1,63.2.2,11.1,9.8,19.1,20.5,22.1,16.6,4.6,48.5,4.2,100.7-31.3,83.4-56.7,73.3-108.4,81.9-156.7h-.2Z"/>
          <path class="cls-13" d="M407.8,583.4s2.6,15.2,3.5,29.1c.9,13.9,2.2,75.6,8.3,97,6.1,21.4,10.7,53.9,59.7,101.2,0,0-23.8-34.9-29.7-56.4-5.8-21.5-12-66.7-11.7-94.1.3-27.4,2.4-60.8-.8-72.1,0,0-15.6-.7-29.4-4.6h.1Z"/>
          <path class="cls-13" d="M287.2,666.1c-2.2,31.5,4.2,98.2-86.9,153.3-9.4,5.7-17.6,10.6-25.7,14.5,65.7-43.6,93.8-102.6,90.5-167.5-2.6-51.5-.7-74.3,1.8-114.1,1.2-19.9,11.1-62.8,11.1-62.8,0,0,6.5,10.5,7.5,12.2,10.5,12.3,7.5,22.4,7.5,22.4-6.8,60.4-3.2,129.8-3.2,129.8,0,0-.8,5.6-2.6,12.2h0Z"/>
          <path class="cls-13" d="M392.5,597.3v-2.3c0-5.5.3-11,1.1-16.4-10.6-3.3-20-6.8-27.4-9.9-21.1-8.9-44.7-24.3-62.2-43.4-17.5-19.1-25.1-35.8-29.5-44.8l-2.7-8.2s-2.2,51.5,34.4,78.4c19.2,14.1,48.5,34.8,86.3,46.8v-.2h0Z"/>
          <path class="cls-13" d="M514.3,577.5s-.2-2.6-3.2-1-19.8,11.1-52.8,12.4c-16.5.6-34.2-2.2-50.5-6.2.3,1.5.7,2.9.9,4.4.2,1.5.4,3,.6,4.6.2,1.5.3,3,.7,4.5.3,1.4.8,2.8,1,4.2.1.8.2,1.6.2,2.3,30.3,6.6,65.1,7.1,103.7-5.1l-.7-20h0Z"/>
          <path class="cls-9" d="M179.7,528.1s-23.6,17.1-70.8,10.2c0,0-18.6-5.1-29.2-10.6-10.7-5.5-22.8-13.9-29.8-21.4,0,0-11.5-24.1-16.4-46s-2.7-58,1.8-79,13-46.4,21.8-64.9c8.8-18.5,15-36,32.8-47.3,0,0,11.5-6.6,15.3,4.4,3.9,11,3.6,19.9,1.2,33.1s-10.1,43.6-10.9,47.3c-.8,3.7-6.1,34.5-8.6,59.6-2.5,25.5,8.1,46.9,10.9,51.7,4.8,8.1,23.4,35.9,87.1,31.4,1.6-.1-5.3,31.5-5.3,31.5h.1Z"/>
          <path class="cls-13" d="M195.4,388.4c-14-3.5-26.4-11.7-26.4-11.7l5.7,8c4.8,4.7,9.1,9.4,10.3,16.1.7,3.6.3,7.3-1.1,10.6l-3,7.3c-1,2.4-5,8-7.4,10.2-.1.3-.2.6-.2.9v.3h.1c3.1-2.1,7-5.1,12.2-9.1,19.7-15.2,23.7-29.3,9.6-32.8l.2.2Z"/>
          <path class="cls-13" d="M490.9,386.3c14-3.5,26.4-11.7,26.4-11.7l-5.7,8c-4.8,4.7-9.1,9.4-10.3,16.1-.7,3.6-.3,7.3,1.1,10.6l3,7.3c1,2.4,5,8,7.4,10.2,0,.3.2.6.2.9v.3h0c-3.1-2.1-7-5.1-12.2-9.1-19.7-15.2-23.7-29.3-9.6-32.8l-.2.2Z"/>
          <path class="cls-13" d="M462.3,450.8s-10.6,37.5-49.7,38c0,0,32.1,5.9,42.8-7.9,10.7-13.9,6.9-30,6.9-30h0Z"/>
          <path class="cls-7" d="M460.7,441.6c4.2,12.3,5.1,27.1-2.3,38.6-6.7,9.9-18.9,13-30.2,12.6-9.1-.2-17.9-2.2-26.6-4.7-14.4-4.1-28.2-10.1-40.8-18-15.3-9.1-28.3-21.4-43.2-30.8-10-6.3-20.9-8.8-31.9-3.5l-1.9,1c-4.3,2.1-7.9,5.6-9.8,10-8.3,19.9,7.5,47.3,19.4,63.2,19.4,25.5,45.7,46.1,75.6,57.9l8.2,3.3c21.8,8.2,44.9,14.3,68.2,15.6,23.2,1.4,47-2.5,67.7-13.2l1.7,3.3c-21.4,11-45.8,15.1-69.6,13.6-23.8-1.4-47.1-7.5-69.3-15.9-2.8-1.1-9.7-3.9-12.4-5-28.8-12.4-54.1-32.5-73-57.4-12.7-17.1-28.9-45.4-19.8-67,2.3-5.1,6.5-9.3,11.5-11.7,3.4-1.8,7.1-3.2,10.9-3.9,15.8-2.8,29.4,8,41.1,16.8,9.4,7.2,18.7,14.4,28.6,20.5,12.4,7.7,25.9,13.6,39.9,17.4,7.6,2.2,15.6,3.7,23.5,4.1,10.3.4,21.7-1.4,28.4-9.8,8-10,7.8-24.8,6.1-37.1h0Z"/>
          <path class="cls-4" d="M91.9,375s-40.8,134.1,93.6,121.1"/>
          <path class="cls-4" d="M102.7,268.9s-7.8-11.2-28.8,16-34.5,60.2-41.6,113.7c-5.9,44.7,2.2,94.5,24.1,114.7"/>
          <path class="cls-7" d="M200.3,441.6c-7.6,29.3-15.5,59-16.6,89.4h-3.7c-.2-15.5,2.3-30.8,5.8-45.8,3.6-14.9,8.2-29.6,14.5-43.6h0Z"/>
          <path class="cls-7" d="M402.6,441.6c1.4,11.2,2.5,22.4,3.3,33.7.3,3.8.4,7.5.2,11.3h-3.7c-.2-13,.2-31.9.2-45h0Z"/>
          <path class="cls-2" d="M293.6,513.2s-5.9,85.4-3.7,144.4"/>
          <g>
            <path class="cls-11" d="M151.4,506.8c10.5-.2,18.4,2.6,19.2,7.6.8,4.9-2.8,12.6-18.9,12.9-16,.2-19.9-7.4-19.3-12.3.7-5.4,8.4-8,19-8.2Z"/>
            <path class="cls-4" d="M151.5,506.8c10.5-.2,18.4,2.6,19.2,7.7.8,4.9-2.8,12.7-18.9,12.9-16,.2-19.9-7.4-19.3-12.4.7-5.4,8.5-8.1,19-8.2Z"/>
            <path class="cls-12" d="M165.1,516.5c0,1.5-5.4,2.7-12,2.7s-12-1.2-12-2.7,5.4-1.6,12-1.6,12,0,12,1.6Z"/>
            <path class="cls-7" d="M139.2,516.6c4.1-.4,9.8,0,13.9,0s9.2-.3,13.9,0c-8.7,4-19.1,3.7-27.8-.2h0Z"/>
          </g>
          <g>
            <path class="cls-11" d="M98.7,493.3c9.7,5.7,15.3,12.8,13,18.2-2.2,5.3-10.1,10.9-24.9,2.2s-13.9-18.3-10.4-22.8c3.8-5,12.5-3.3,22.3,2.4h0Z"/>
            <path class="cls-4" d="M98.7,493.3c9.7,5.7,15.3,12.8,13,18.2-2.2,5.3-10.1,10.9-24.9,2.2s-13.9-18.3-10.4-22.8c3.8-5,12.5-3.3,22.3,2.4h0Z"/>
            <path class="cls-12" d="M103.6,507.3c-.7,1.3-6-.5-11.7-3.8-5.7-3.4-9.7-7.1-9-8.4s5.4,1.4,11.1,4.8,10.3,6.2,9.6,7.5h0Z"/>
            <path class="cls-7" d="M81,494.1c4.1,2.3,7.8,5.1,11.7,7.5,3.9,2.4,8.2,4.3,12.1,6.9-9.7-.6-18.7-6.2-23.8-14.4h0Z"/>
          </g>
          <g>
            <path class="cls-11" d="M74.6,448.3c2,11.1.2,19.9-5.3,21.7-5.5,1.8-14.8-.6-17.9-17.5-3.1-16.9,4.9-22.4,10.6-22.7,6.3-.3,10.6,7.4,12.6,18.5Z"/>
            <path class="cls-12" d="M68.2,461.7c-1.4.3-3.6-4.7-4.8-11s-1-11.7.4-12c1.4-.3,2.5,4.9,3.7,11.2,1.2,6.4,2.1,11.5.7,11.8Z"/>
            <path class="cls-4" d="M74.6,448.3c2,11.1.2,19.9-5.3,21.7s-14.8-.6-17.9-17.5c-3.1-16.9,4.9-22.4,10.6-22.7,6.3-.3,10.6,7.4,12.6,18.5Z"/>
            <path class="cls-7" d="M63.8,435.6c.8,4.6,1,9.3,1.5,13.9.6,4.5,1.9,9,2.6,13.7-6-7.7-7.2-18.4-4.1-27.5h0Z"/>
          </g>
          <g>
            <path class="cls-11" d="M72.9,389.4c-1.3,11.2-5.6,19.1-11.5,19.2-5.7,0-14-4.9-12-22,2-17,11.2-20,16.8-18.6,5.6,1.4,8,10.2,6.7,21.4Z"/>
            <path class="cls-12" d="M63.2,400.5c-1.5,0-2.3-5.4-1.9-11.9.4-6.5,2-11.6,3.4-11.5,1.5,0,1.2,5.3.8,11.8-.4,6.5-.9,11.7-2.3,11.6Z"/>
            <path class="cls-4" d="M72.9,389.4c-1.3,11.2-5.6,19.1-11.5,19.2s-14-4.9-12-22c2-17,11.2-20,16.8-18.6,6.1,1.5,8,10.2,6.7,21.4Z"/>
            <path class="cls-7" d="M65.3,374.3c-.4,4.7-1.5,9.2-1.9,13.8-.4,4.6-.3,9.2-.8,13.9-3.7-9-2.7-19.6,2.8-27.7h0Z"/>
          </g>
          <g>
            <path class="cls-11" d="M88.1,331.2c-3.8,10.6-9.8,17.3-15.5,16.1-5.6-1.2-12.5-8-6.7-24.1,5.8-16.2,15.5-17,20.6-14.3,5.6,2.9,5.5,11.7,1.7,22.3h0Z"/>
            <path class="cls-12" d="M76.7,339.6c-1.4-.5-.9-5.8,1.2-12s4.8-10.8,6.2-10.3c1.4.5-.2,5.5-2.2,11.6s-3.8,11.1-5.2,10.6h0Z"/>
            <path class="cls-4" d="M88.1,331.2c-3.8,10.6-9.8,17.3-15.5,16.1-5.6-1.2-12.5-8-6.7-24.1,5.8-16.2,15.5-17,20.6-14.3,5.6,2.9,5.5,11.7,1.7,22.3h0Z"/>
            <path class="cls-7" d="M85,314.5c-1.7,4.4-4,8.5-5.6,12.8s-2.4,8.9-3.9,13.4c-1.9-9.9,1.8-19.7,9.5-26.2h0Z"/>
          </g>
          <path class="cls-3" d="M572.1,203.9v-6.5c-.7-104.1-103.8-188.4-230.9-188.4S112.4,92.2,110.3,195.3v8.1"/>
          <path class="cls-3" d="M552.4,202.6c0-3.3-.2-6.6-.5-9.9-5.6-55.4-58.2-98.7-131.1-118.7-24.5-6.7-51.4-7.4-79.5-7.4s-52.9-.5-76.6,5.8c-74.5,19.6-128.5,64.3-134,120.6v7.2"/>
          <path class="cls-11" d="M606.2,266c0-22.3-.4-39.1-21.6-55.7,0,0-8.7-7.9-26.5-8.7,0,0-7.4-1.8-7.4,6.7v120.4s-1.2,6.3,4.2,6.3,23.1.3,35.6-13.7c12.5-14.1,15.7-27.6,15.7-36.6v-18.6h0Z"/>
          <path class="cls-3" d="M534.4,207.2v122c0,3.1,2.3,5.7,5.2,5.7h18.5c26.6,0,48.1-23.6,48.1-52.8v-27.8c0-23.2-13.6-42.8-32.5-49.9-4.9-1.8-10.1-2.8-15.6-2.8h-18.5c-2.8,0-5.2,2.5-5.2,5.7h0Z"/>
          <path class="cls-3" d="M185.4,407.3c.2-5.2-1.5-10.3-4.7-14.4-1.4-1.8-2.8-3.5-3.5-4.2-19.1-19.5-30.8-76.4-30.8-104v-41.3c0-91.9,28.7-176.8,182.9-176.8h22.6c150.8,0,183.5,72.7,183.5,176.3v41.8c0,27.7-10.7,87.3-29.8,104.4-3.6,4-7.1,15.5,2.8,29.8,0,0,31.9,43.5,36.6,70.7,5.5,32,2.5,63.6-31.1,85.6,3.2,31.6-2.6,77,2.2,117.8,4.8,40.8,20.2,53.5,60.1,90.4,48.5,44.8,18.3,64.8-11.2,64.7-3,0-6-.2-9-.5-16.8-1.6-32.9-7.2-47.4-15.8-37.2-22.1-58.7-50.4-75.2-81.5-20.9-39.4-19.8-99.6-21.4-128-.7-12.5-2.3-26-4.3-38.9l-13.5-4c-1.1,22.3-2.2,48.8-3.1,73.2-2.1,61.5-.3,80.5,19.2,120.6,25,51.3,60.7,73.7,25.3,95.3-28.2,17.2-125.2-10-137.4-95.8-7.9-55.1-8-107.4-8.5-115.1-8.6,48.3,1.5,100-81.9,156.7-52.2,35.5-84.1,36-100.7,31.3-10.6-3-20.3-11-20.5-22.1-.3-16.6,30.3-40.3,50.1-63.2,45.4-52.4,47.3-73.8,46.5-88.4-1.4-23.5-3-80.8-3-80.8-.5-18.4,1.4-63,1.4-63-23.6,13.3-52.3,12.6-62.7,11.9-2.3-.2-4.6-.5-6.8-1C9,515.8,8,419.6,11.3,379.5c4.1-50.3,45.5-139,80.6-120.4,45.8,24.4-23.8,114.3,8.4,155.4,25.1,32,51.5,26.2,65.7,19.3,8.3-4,14.9-11,18-19.7s1-3.1,1.3-4.6c.1-.7.2-1.4.2-2.2h-.1Z"/>
          <path class="cls-8" d="M122.4,336.4l-6.5-.8c.2.3.4,1.4.6,1.8,4.3,6,15.4,23.4,55.4,31.3s67.1,3.1,67.1,3.1l-1.2-7.9s-14.4,2.3-30.8-.6c-16.3-2.9-34.7-2.3-57.7-12.6,0,0-13-5.3-20-14.1,0,0,.2.4-6.9-.1h0Z"/>
          <path class="cls-3" d="M128.4,334.9s11.3,28.7,110.6,29.8c0,0,1.6,6.8,0,7-15.5,2.2-104.2,5.6-124.4-38.2,0-.2,1.9.7,2.2.7,1.7.3,3.3.6,11.6.6h0Z"/>
          <rect class="cls-7" x="234.8" y="350.1" width="80.5" height="35.3" rx="17" ry="17"/>
          <path class="cls-8" d="M148.2,206.9v122c0,3.1-2.5,5.7-5.7,5.7h-10.6v-133.4h10.6c3.1,0,5.7,2.5,5.7,5.7h0Z"/>
          <path class="cls-3" d="M148.2,206.9v122c0,3.1-2.5,5.7-5.7,5.7h-10.6v-133.4h10.6c3.1,0,5.7,2.5,5.7,5.7h0Z"/>
          <path class="cls-8" d="M534.4,207.2v122c0,3.1,2.5,5.7,5.7,5.7h10.6v-133.4h-10.6c-3.1,0-5.7,2.5-5.7,5.7h0Z"/>
          <path class="cls-3" d="M534.4,207.2v122c0,3.1,2.5,5.7,5.7,5.7h10.6v-133.4h-10.6c-3.1,0-5.7,2.5-5.7,5.7h0Z"/>
          <g>
            <path class="cls-5" d="M371.9,337.5c0,2.9-1,6-2.9,9-.9,1.5-2,3-3.3,4.4-5.4,5.9-13.9,10.5-23.4,10.5s-18-4.6-23.4-10.5c-1.3-1.4-2.4-2.9-3.3-4.4-1.8-3-2.9-6.1-2.9-9,0-10.3,13.3-8.8,29.6-8.8s29.6-1.5,29.6,8.8h0Z"/>
            <path class="cls-1" d="M369,346.5c-.9,1.5-2,3-3.3,4.4-5.4,5.9-13.9,10.5-23.4,10.5s-18-4.6-23.4-10.5c-1.3-1.4-2.4-2.9-3.3-4.4,6.3-5.8,16-9.4,26.8-9.4s20.5,3.7,26.8,9.4h-.2Z"/>
          </g>
        </g>
        <g>
          <path class="cls-10" d="M313,269.8c0,1.7,0,3.4-.2,4.9-2.2,22.4-20.5,23.6-46.6,30.1-24.6,6.1-40.3,2-48.9-8-5.8-6.7-8.4-16.1-8.4-26.9,0-27.1,23.3-49.1,52.1-49.1s52.1,22,52.1,49.1h-.1Z"/>
          <path class="cls-14" d="M313,269.8c0,1.7,0,3.4-.2,4.9,0,0-5.1-20.3-19.7-33.8-10.3-9.5-26.2-15.1-44.7-10.2-44.8,11.8-36.5,57.5-31.2,66-5.8-6.7-8.4-16.1-8.4-26.9,0-27.1,23.3-49.1,52.1-49.1s52.1,22,52.1,49.1Z"/>
          <path class="cls-10" d="M371.1,269.8c0-27.1,23.3-49.1,52.1-49.1s52.1,22,52.1,49.1-16.3,45-57.3,35c-27.9-6.9-46.9-7.8-46.9-35h0Z"/>
          <path class="cls-14" d="M370.8,269.8c0,1.7,0,3.4.2,4.9,0,0,5.1-20.3,19.7-33.8,10.3-9.5,26.2-15.1,44.7-10.2,44.8,11.8,36.5,57.5,31.2,66,5.8-6.7,8.4-16.1,8.4-26.9,0-27.1-23.3-49.1-52.1-49.1s-52.1,22-52.1,49.1h0Z"/>
          <path class="cls-3" d="M371.1,269.8c0-27.1,23.3-49.1,52.1-49.1s52.1,22,52.1,49.1-16.3,45-57.3,35c-27.9-6.9-46.9-7.8-46.9-35h0Z"/>
          <path class="cls-3" d="M313,269.8c0-27.1-23.3-49.1-52.1-49.1s-52.1,22-52.1,49.1,16.3,45,57.3,35c41-10,46.9-7.8,46.9-35h0Z"/>
          <ellipse class="cls-7" cx="420.9" cy="272.9" rx="32.8" ry="23.5" transform="translate(123.5 676.9) rotate(-86.6)"/>
          <ellipse class="cls-7" cx="263.4" cy="272.7" rx="23.5" ry="32.8" transform="translate(-15.7 16.1) rotate(-3.4)"/>
          <path class="cls-7" d="M399.6,199.7c18-10.8,42.4-12.6,60.9-1.9,6.2,3.6,11.5,8.5,15.4,14.2-5.4-4.2-11-8-17.2-10.8-18.6-8.4-39.7-6.7-59.1-1.6h0Z"/>
          <path class="cls-7" d="M284.6,199.7c-19.4-5-40.5-6.8-59.1,1.6-6.2,2.7-11.8,6.5-17.2,10.8,3.9-5.7,9.2-10.7,15.4-14.2,18.5-10.7,42.9-8.9,60.9,1.9h0Z"/>
        </g>
      </g>
    </g>
  </g>
</svg>