<?xml version="1.0" encoding="UTF-8"?>
<svg xmlns="http://www.w3.org/2000/svg" width="1031" height="1431.6" version="1.1" viewBox="0 0 1031 1431.6">
  <defs>
    <style>
      .cls-1 {
        fill: #8c2cbf;
      }

      .cls-2 {
        fill: #0c050e;
      }

      .cls-3 {
        fill: #f8defd;
      }

      .cls-4 {
        stroke-width: 4.1px;
      }

      .cls-4, .cls-5, .cls-6, .cls-7 {
        fill: none;
      }

      .cls-4, .cls-5, .cls-6, .cls-7, .cls-8, .cls-9, .cls-10 {
        stroke-miterlimit: 10;
      }

      .cls-4, .cls-5, .cls-6, .cls-8, .cls-9, .cls-10 {
        stroke: #0c050e;
      }

      .cls-5 {
        stroke-width: 4px;
      }

      .cls-6 {
        stroke-width: 3px;
      }

      .cls-7 {
        stroke: #000;
        stroke-width: 5px;
      }

      .cls-11 {
        fill: #ebe4d7;
      }

      .cls-12 {
        fill: #fcfaf3;
      }

      .cls-13, .cls-8, .cls-9, .cls-10 {
        fill: #569ce2;
      }

      .cls-8 {
        stroke-width: 3.5px;
      }

      .cls-9 {
        stroke-width: 2.8px;
      }

      .cls-10 {
        stroke-width: 3.4px;
      }

      .cls-14 {
        fill: #507dab;
      }

      .cls-15 {
        fill: #6d269b;
      }
    </style>
  </defs>
  <!-- Generator: Adobe Illustrator 28.6.0, SVG Export Plug-In . SVG Version: 1.2.0 Build 709)  -->
  <g>
    <g id="Layer_1">
      <g id="Layer_1-2" data-name="Layer_1">
        <g id="Layer_1-2">
          <g>
            <g>
              <path class="cls-1" d="M422.5,1146.9c-2.4,222.5,48.1,211.7,48.1,211.7,76.8,0,96.4-193.9,85.8-352-4.3-64.6-16.4-118.4-29.2-159.4,107.4-7.2,91.4-345.8,91.4-345.8,0,0,80.8,2.7,85.9-4.6,5.1-7.3-8.7-82.2-90.2-81.5-81.5.7-98.7,108.5-98.7,108.5-21.5-108.1-73.7-176.4-234.9-148.1l-25,4.4c-170.3,30-185.5,129.4-167.6,230.8l8,45.6c5.4,30.5,29.4,91.1,54.2,108.9,1.4,1,4,2.2,6,3.6,1.1.8,1.7,1.8,1.9,2.9.1.8-.1,1.6-.7,2.3-6.3,7.8-14.8,20.4-22.6,39.4-11.5,27.8-158.6,318.9-121.5,356.1,40.3,40.4,104.7-50.4,123.3-88-8.5,155.2,12.2,337.9,86.7,337.9,0,0,50.4,10.9,47-217.7-.3-18.1-.4-36.2-.4-54.3,0,0,6.2,254.2,80.6,242,52.6-8.6,67.7-156.7,72-242.7h-.1Z"/>
              <path class="cls-15" d="M496.6,726.2s2.5,23.8,20.4,0c17.9-23.8,41.7-47,28.9-138.5-12.9-91.5-13.6-116.1,8.7-146,0,0-28,26.3-37.5,75.4v14.4s5.2,26.2,7.4,42,12.2,68.7-2.6,108.5c0,0-8.8,24.7-21.5,35.7,0,0-3.5,4-3.6,8.6h-.2Z"/>
              <path class="cls-3" d="M145.8,966.9s-10.5,21.6-20.6,37c-10,15.4-31.4,47.1-44.6,67.7-13.2,20.6-39.4,72.5-43.1,89.7-3.7,17.2,5.7,19.7,14.7,15.3,8.9-4.5,33.4-15.2,68.3-67.2,0,0,15.8-23,16.6-35.4s4.9-60.3,7-77.3c0,0,5.4-31.7,1.6-29.7h0Z"/>
              <g>
                <path class="cls-10" d="M137.6,1062.1c.2-4.9.8-9.8,1.4-14.7.5-4,1.1-7.9,1.3-11.9-5.6-2.5-14.7-1.3-23.2,12.8-9.9,16.5-3.7,25.5,2.2,28,5.6,2.5,12.2-2.1,18.1-10.6,0-1.2.1-2.4.2-3.6Z"/>
                <path class="cls-14" d="M124.3,1068.4s3.1-14,12.1-22.2c7.6-6.8-2.5,11.4-5.9,17.4-1,1.7-2,3.3-3.3,4.7-1.5,1.7-3.2,3-2.9,0h0Z"/>
                <path class="cls-2" d="M123.5,1070.8c.4-10.8,5.9-21.5,15.2-27.2-2.5,4.6-5.7,8.8-8.1,13.3-2.4,4.6-4.4,9.4-7.1,13.9h0Z"/>
              </g>
              <path class="cls-15" d="M126.7,736.6s17.9,20.2,33.8,25.9,12.4,9,4.8,19.5c-8.2,11.3-25.1,23.4-32,35.4,0,0,11.8-28,22.1-40.4,0,0,7.1-6.7-2.1-9.8-9.2-3.1-26.5-30.6-26.5-30.6h-.1Z"/>
              <path class="cls-15" d="M168.6,858.8s-35,132.8-64.5,175.6c0,0,41.9-57,46.5-84,4.5-27,9-55.1,18.1-91.6h-.1Z"/>
              <path class="cls-3" d="M518.3,820.9s-2.8-3,3.5-4.3,30.8-1.3,58.6-54.9,28.4-79.8,28.4-79.8c0,0,2.5,6.1,1,15.8-1.5,9.7-9.4,76.3-35.7,117.1-20.1,31.3-46.9,32.4-46.9,32.4,0,0-6.5-19.7-8.9-26.3h0Z"/>
              <path class="cls-15" d="M280.6,888.6s-31.1,115.9-29.5,277.2,6.1,212.3-.8,225.9c0,0,16.6-46.4,18.4-103.1,1.8-56.7,1.3-185.2,1.3-185.2,0,0,3.1-134.9,10.6-214.8h0Z"/>
              <path class="cls-15" d="M416.2,865.8s32.7,66.7,33.8,291.5c1.1,224.8,9.9,197.7,9.9,197.7,0,0-26.4-7.1-35.6-128.9-2.3-30.7-1.6-42.7-1.8-61.6-.7-56.1,3.3-88.3-.6-175-5.1-115.9-5.7-123.8-5.7-123.8h0Z"/>
              <path class="cls-2" d="M267.9,1147.6c-.3-54.4,1.1-109.4,4-163.7,2.2-40.9,5.3-81.7,9.1-122.5,1.3-13.6,2.8-27.1,5.6-40.6.4,27.4-3.5,54.4-5.1,81.7-3.9,54.4-6.6,108.8-8,163.3-.8,27.2-1.2,54.5-1.5,81.7h-4.1Z"/>
              <path class="cls-2" d="M496.8,735.2c-1.2-2.7-2.1-5.5-2.4-8.6,0-.8.1-1.5.4-2.3.5-2.3,1.1-4.6,2.3-6.6,5.9-6,11.3-12.7,15.4-20.2,20.1-37.6,15.7-82.4,9.9-123.3-2.5-16.7-5.8-33.4-8.8-50.1l4.1-.7c10.6,61,32,147.5-17.1,196.9l.4-.5c-.9,1.7-1.8,3.3-2,5.2,0,.6,0,1.3-.2,1.9-.7,2.5-1.1,5.4-1.9,8.2h-.1Z"/>
              <path class="cls-2" d="M500.2,770c10.7,25.1,21.6,50.1,29,76.5l-4,1.2-6.8-19.2c-2.3-6.4-8.2-22.6-10.4-28.8-3.5-9.7-6.9-19.4-7.9-29.8h0Z"/>
              <path class="cls-2" d="M176.2,829.8c-6.3,31.3-13.7,62.2-19.1,93.7-9,52.3-15,105.1-18.4,158.1l-4.1-.2c.3-5.3.5-10.6.9-16,2.4-37.2,6.4-74.3,12.2-111.1,7.1-41.9,14.2-84.2,28.5-124.4h0Z"/>
              <path class="cls-4" d="M422.5,1146.9c-2.4,222.5,48.1,211.7,48.1,211.7,76.8,0,96.4-193.9,85.8-352-4.3-64.6-16.4-118.4-29.2-159.4,107.4-7.2,91.4-345.8,91.4-345.8,0,0,80.8,2.7,85.9-4.6,5.1-7.3-8.7-82.2-90.2-81.5-81.5.7-98.7,108.5-98.7,108.5-21.5-108.1-73.7-176.4-234.9-148.1l-25,4.4c-170.3,30-185.5,129.4-167.6,230.8l8,45.6c5.4,30.5,29.4,91.1,54.2,108.9,1.4,1,4,2.2,6,3.6,1.1.8,1.7,1.8,1.9,2.9.1.8-.1,1.6-.7,2.3-6.3,7.8-14.8,20.4-22.6,39.4-11.5,27.8-158.6,318.9-121.5,356.1,40.3,40.4,104.7-50.4,123.3-88-8.5,155.2,12.2,337.9,86.7,337.9,0,0,50.4,10.9,47-217.7-.3-18.1-.4-36.2-.4-54.3,0,0,6.2,254.2,80.6,242,52.6-8.6,67.7-156.7,72-242.7h-.1Z"/>
              <path class="cls-2" d="M411.5,805.1c7,42.3,8.6,85.2,10.9,127.9,3.1,71.3,3.4,142.6,2.2,214h-4.1c1.3-85.5-.4-171-5-256.4-1.4-28.5-4.5-56.8-3.9-85.4h-.1Z"/>
              <path class="cls-4" d="M149.4,957.9c-12.7,36.2-54.5,88-69.9,115.7-27.9,50.2-55.8,103.8-34.3,105.2"/>
              <path class="cls-4" d="M615,653.4s-26.8,160.8-98,163.6"/>
              <g>
                <path class="cls-9" d="M572.9,824.5c4.5-5,13.4-18.4,7-25.1s-16.7,6-21.1,10.8c-4.3,4.8-15.8,18.7-8.7,24.2,7.7,6.1,18.2-4.9,22.7-9.9h0Z"/>
                <path class="cls-14" d="M557.4,829.3c5.1-7.6,8.7-13.2,16.9-20.1,6.9-5.8-8.2,15.1-10.3,17-.6.5-3.2,3.1-4.3,3.6-1,.5-4.7,3-2.3-.5h0Z"/>
                <path class="cls-2" d="M555.6,831.2c2.5-4.9,5.1-9.5,8.5-13.8,3.6-4.3,8-7.2,12.3-10.6-2.5,4.8-6.8,8.3-10.1,12.4-3.4,4.1-6.5,8.6-10.7,12h0Z"/>
              </g>
              <g>
                <path class="cls-8" d="M92,1136.3c7.4-10.7,9.8-20.7,4.8-25.3-4.9-4.5-15.8-6.5-27.1,9.7-11.3,16.2-5.6,25.8.2,28.9s14.7-2.7,22.1-13.3h0Z"/>
                <path class="cls-14" d="M74.5,1141.2s5.2-14.5,16-21.8c9-6.2-4.2,11.8-8.7,17.7-1.2,1.6-2.6,3.2-4.2,4.5-1.9,1.6-3.8,2.7-3.1-.3h0Z"/>
                <path class="cls-2" d="M73.9,1143.4c1.4-11.2,8.7-21,18.8-25.9-3.1,4.5-6.7,8.4-9.9,12.6-3.1,4.3-5.7,9-8.9,13.3h0Z"/>
              </g>
              <g>
                <path class="cls-12" d="M357.5,606c-5.1-27.3,12.2-52.9,39.6-58.1,27.3-5.2,52.8,12.3,58,39.6,5.1,27.3-12.3,52.9-39.6,58.1-27.3,5.2-52.8-12.3-57.9-39.6h-.1Z"/>
                <path class="cls-11" d="M455.5,587.4c.4,1.7.5,3.6.7,5-9-24.2-31-39.5-57.3-34.5-26.2,5-41.2,27.3-40.8,53.1-.3-1.4-.9-3.2-1.1-4.9-3.4-27.5,12-52.8,40.1-58.1s51.6,12.6,58.4,39.4h0Z"/>
                <path class="cls-5" d="M455.2,588.1c-5.7-28.6-30.7-45.2-58.1-39.9-27.3,5.4-45.1,29-39.5,58.6,5.6,29.5,25.4,45.5,58.1,39.1,29-5.7,45.1-29.2,39.4-57.8h.1Z"/>
                <path class="cls-2" d="M416.4,594.9c2,10.5,2.1,29.7-11.2,32.2-13.3,2.5-20.2-15.4-22.1-25.9-2-10.5-2.1-29.7,11.2-32.2s20.2,15.4,22.1,25.9h0Z"/>
                <path class="cls-2" d="M391.8,518.8c17.1-13.2,48.5-6.1,61.5,10.1,4.7,5.9,7,13.2,8.1,20.5-1.4-3.4-2.8-6.7-4.5-9.8-5-9.5-13.8-15.4-23.8-18.9-13.2-4.3-27.8-5.9-41.3-1.9h0Z"/>
                <path class="cls-2" d="M230.4,549.1c-14.1,1.2-27.1,8-37.8,16.8-8.1,6.8-14.2,15.6-15.4,26.2-.5,3.5-.6,7.1-.7,10.8-1.6-7.2-2.1-14.8.2-22,6.3-19.8,33-37.9,53.7-31.7h0Z"/>
                <path class="cls-12" d="M293.6,618c-5.1-27.3-30.6-44.8-57.9-39.7-27.3,5.1-44.8,30.6-39.7,57.9,5.1,27.3,30.6,44.8,58,39.7,27.3-5.1,44.8-30.6,39.6-57.9h0Z"/>
                <path class="cls-11" d="M195.5,636.3c.2,1.7.8,3.5,1.1,4.9-.4-25.8,14.6-48.1,40.8-53s48.3,10.4,57.3,34.7c-.2-1.4-.3-3.3-.7-5-6.8-26.9-30.3-44.8-58.4-39.5s-43.5,30.5-40.1,58h0Z"/>
                <path class="cls-5" d="M196,636.8c-5.1-28.7,12.2-53.3,39.6-58.2,27.4-4.9,52.6,10.7,58.1,40.2,5.5,29.6-7.1,51.6-40,57.5-29.1,5.2-52.6-10.8-57.7-39.5h0Z"/>
                <path class="cls-2" d="M234.6,629.1c2,10.5,8.9,28.4,22.1,25.9,13.3-2.5,13.2-21.7,11.2-32.2s-8.8-28.4-22.1-25.9c-13.3,2.5-13.2,21.6-11.2,32.2h0Z"/>
              </g>
            </g>
            <path class="cls-13" d="M604.6,756.7c-5,16.1-10.8,17.9-15,15.9-.4-.2-.7-.4-1-.7,0,0,6.9-23.7,10.8-37.4.7-.2,1.4-.3,2.2-.2,4.5.6,8,6.3,3,22.4h0Z"/>
            <path class="cls-6" d="M604.6,756.7c-5,16.1-11.2,18.6-15,15.9s-.3-2.7-.3-2.7c0,0,5.8-19.9,9.7-33.8.3-1.2,1.4-2,2.6-1.8s0,0,0,0c4.5.6,8,6.3,3,22.4Z"/>
          </g>
        </g>
      </g>
      <g>
        <path d="M39.5,74.3c-.8.8-1.8,1.1-2.8,1.1s-2.2-.4-2.9-1.1c-.7-.8-1.1-1.7-1.1-2.8V22.4c0-1.1.4-2,1.1-2.8.8-.8,1.7-1.1,2.9-1.1s2,.4,2.8,1.1c.8.8,1.2,1.7,1.2,2.8v49.1c0,1.1-.4,2.1-1.2,2.8Z"/>
        <path d="M61.7,29.8c-.9,1.8-2,3.3-3.3,4.5-1.3,1.2-2.7,1.8-4.1,1.8-2.1,0-3.2-.9-3.2-2.7s.2-1.2.5-1.5c.4-.3.8-.5,1.3-.7.5-.2.9-.3,1.2-.4,1.5-.9,2.3-2.1,2.3-3.7s-.2-1.1-.7-1.5c-.5-.4-1.1-.6-1.8-.6s-1.7.2-2.3.6c-.5-.3-.9-.6-1.2-1-.3-.4-.4-.9-.3-1.6,0-1.4.7-2.5,2.1-3.5,1.4-1,2.8-1.5,4.4-1.5s3.5.6,4.7,1.9c1.2,1.2,1.7,3,1.7,5.3s-.4,2.9-1.3,4.7Z"/>
        <path d="M136,49.8v21.7c0,1.1-.4,2.1-1.1,2.8-.7.7-1.6,1.1-2.8,1.1s-2.1-.4-2.8-1.1c-.7-.8-1.1-1.7-1.1-2.8v-21.6c0-7.1-3-10.7-8.9-10.7s-4,.5-5.7,1.4c-1.7.9-3,2.2-4,3.9-.9,1.6-1.4,3.4-1.4,5.4v21.6c0,1.1-.4,2-1.1,2.8-.7.8-1.7,1.1-2.8,1.1s-2.1-.4-2.8-1.1c-.7-.7-1.1-1.7-1.1-2.8v-21.7c0-3.2-.7-5.8-2-7.7-1.4-1.9-3.6-2.9-6.8-2.9s-5.8,1-7.9,3.1c-2.1,2-3.1,4.5-3.1,7.5v21.7c0,1.1-.4,2-1.1,2.8-.7.8-1.7,1.1-2.8,1.1s-2.1-.4-2.8-1.1c-.7-.7-1.1-1.7-1.1-2.8v-34.8c0-1.1.4-2,1.1-2.8.7-.8,1.6-1.1,2.7-1.1s2.1.4,2.8,1.1c.7.8,1.1,1.7,1.1,2.8v2.8c1.4-2.1,3.3-3.9,5.7-5.3,2.4-1.4,4.9-2.2,7.7-2.2,6.7,0,11.1,3,13.1,8.9,1.2-2.3,3.2-4.3,5.9-6.2,2.8-1.8,5.7-2.8,8.8-2.8,9.5,0,14.2,5.9,14.2,17.7Z"/>
        <path d="M205.6,49.8v21.7c0,1.1-.4,2-1.1,2.8-.7.8-1.7,1.1-2.8,1.1s-2-.4-2.7-1.1c-.7-.8-1.1-1.7-1.1-2.8v-21.7c0-7-3-10.6-8.9-10.6s-5.9,1-8,3.1c-2.1,2-3.2,4.5-3.2,7.5v21.7c0,1.1-.4,2-1.1,2.8-.7.8-1.7,1.1-2.8,1.1s-2.1-.4-2.8-1.1c-.7-.7-1.1-1.7-1.1-2.8V19.1c0-1.1.4-2,1.1-2.8.7-.8,1.6-1.1,2.7-1.1s2.1.4,2.8,1.1c.7.8,1.1,1.7,1.1,2.8v20.6c1.4-2.1,3.3-3.9,5.7-5.4,2.4-1.5,5-2.2,7.8-2.2,9.5,0,14.3,5.9,14.3,17.7Z"/>
        <path d="M253.4,55c-.8.7-1.7,1-2.7,1h-28.6c.4,4,1.9,7.1,4.5,9.5,2.6,2.4,5.8,3.6,9.6,3.6s4.7-.4,6.3-1.1c1.6-.8,3.1-1.7,4.3-2.9.8-.5,1.6-.7,2.4-.7s1.7.3,2.3,1c.6.7.9,1.4.9,2.3s-.5,2.2-1.6,3.1c-1.6,1.6-3.7,2.9-6.3,4-2.6,1.1-5.3,1.6-8,1.6-4.4,0-8.3-.9-11.6-2.8-3.3-1.8-5.9-4.4-7.7-7.7-1.8-3.3-2.7-7-2.7-11.2s.9-8.6,2.8-12c1.9-3.4,4.3-6.1,7.4-7.9,3.1-1.8,6.4-2.8,9.9-2.8s6.7.9,9.8,2.7c3,1.8,5.5,4.3,7.3,7.4,1.8,3.1,2.8,6.7,2.8,10.6,0,1-.5,1.8-1.2,2.5ZM226.8,41.6c-2.2,1.7-3.7,4.4-4.4,7.9h24v-.7c-.3-2.9-1.6-5.2-3.9-7.1-2.3-1.8-4.9-2.8-7.8-2.8s-5.7.9-7.9,2.6Z"/>
        <path d="M301.2,33.3c.7.7,1.1,1.7,1.1,2.9v35.3c0,1.1-.4,2-1.1,2.8-.7.8-1.7,1.1-2.8,1.1s-2.1-.4-2.8-1.1c-.7-.7-1.1-1.7-1.1-2.8v-2.1c-1.4,1.9-3.3,3.5-5.8,4.8-2.4,1.3-5.1,2-7.9,2s-7-.9-10-2.8c-3-1.9-5.4-4.5-7.1-7.9-1.7-3.4-2.6-7.2-2.6-11.4s.9-8,2.6-11.4c1.7-3.4,4.1-6,7-7.9,3-1.9,6.3-2.8,9.8-2.8s5.5.6,8,1.8c2.5,1.2,4.4,2.7,5.9,4.6v-2c0-1.1.4-2.1,1.1-2.8.7-.8,1.6-1.1,2.8-1.1s2.1.4,2.8,1.1ZM288.6,67.1c2-1.3,3.5-3.1,4.6-5.4,1.1-2.3,1.7-4.9,1.7-7.7s-.6-5.4-1.7-7.6c-1.1-2.3-2.7-4.1-4.6-5.4-2-1.3-4.2-2-6.8-2s-4.8.7-6.8,2c-2,1.3-3.5,3.1-4.6,5.4-1.1,2.3-1.7,4.9-1.7,7.7s.6,5.5,1.7,7.7c1.1,2.3,2.7,4.1,4.6,5.4,2,1.3,4.2,2,6.8,2s4.8-.7,6.8-2Z"/>
        <path d="M338.7,32.9c1,.7,1.5,1.6,1.5,2.7s-.3,2.3-1,3c-.7.7-1.5,1-2.5,1s-1.2-.2-2.2-.5c-1.1-.4-2-.6-2.7-.6-1.7,0-3.3.6-4.9,1.7-1.6,1.2-2.9,2.8-3.9,4.8-1,2-1.5,4.3-1.5,6.8v19.6c0,1.1-.4,2-1.1,2.8-.7.8-1.7,1.1-2.8,1.1s-2.1-.4-2.8-1.1c-.7-.7-1.1-1.7-1.1-2.8v-34.8c0-1.1.4-2,1.1-2.8.7-.8,1.6-1.1,2.7-1.1s2.1.4,2.8,1.1c.7.8,1.1,1.7,1.1,2.8v4.1c1.2-2.7,3-4.8,5.4-6.5,2.4-1.7,5.1-2.5,8.1-2.6,1.4,0,2.6.4,3.7,1.1Z"/>
        <path d="M381.5,40.4v24.2c0,2.7,1.2,4.1,3.7,4.1s.9,0,1.5-.3c.7-.2,1.2-.3,1.5-.3.7,0,1.3.3,1.8.9.5.6.7,1.4.7,2.3s-.7,2.1-2,2.9c-1.3.8-2.8,1.2-4.4,1.2s-3.4-.2-4.9-.6c-1.5-.4-2.8-1.3-4-2.9-1.2-1.5-1.7-3.9-1.7-7v-24.6h-4.7c-1,0-1.9-.3-2.6-1-.7-.7-1-1.5-1-2.6s.3-1.9,1-2.5c.7-.7,1.5-1,2.6-1h4.7v-6.8c0-1.1.4-2,1.1-2.8.7-.8,1.7-1.1,2.8-1.1s2,.4,2.7,1.1c.7.8,1.1,1.7,1.1,2.8v6.8h6.8c1,0,1.9.3,2.6,1,.7.7,1,1.5,1,2.6s-.3,1.9-1,2.5c-.7.7-1.5,1-2.6,1h-6.8Z"/>
        <path d="M437.9,65.5c-1.9,3.4-4.5,6-7.8,7.9-3.3,1.9-6.9,2.8-10.9,2.8s-7.6-.9-10.9-2.8c-3.3-1.9-5.9-4.5-7.8-7.9-1.9-3.4-2.8-7.2-2.8-11.4s.9-8.1,2.8-11.5c1.9-3.4,4.5-6.1,7.8-8,3.3-1.9,6.9-2.8,10.9-2.8s7.6.9,10.9,2.8c3.3,1.9,5.9,4.6,7.8,8,1.9,3.4,2.8,7.2,2.8,11.5s-.9,8-2.8,11.4ZM431.2,46.3c-1.2-2.3-2.9-4.1-5-5.4-2.1-1.3-4.4-1.9-7-1.9s-4.9.6-7,1.9c-2.1,1.3-3.7,3.1-5,5.4-1.2,2.3-1.8,4.9-1.8,7.9s.6,5.5,1.8,7.7c1.2,2.3,2.9,4.1,5,5.3,2.1,1.3,4.4,1.9,7,1.9s4.9-.6,7-1.9c2.1-1.3,3.7-3.1,5-5.3,1.2-2.3,1.8-4.9,1.8-7.7s-.6-5.5-1.8-7.9Z"/>
        <path d="M507.8,49.8v21.7c0,1.1-.4,2-1.1,2.8-.7.8-1.7,1.1-2.8,1.1s-2-.4-2.7-1.1c-.7-.8-1.1-1.7-1.1-2.8v-21.7c0-7-3-10.6-8.9-10.6s-5.9,1-8,3.1c-2.1,2-3.2,4.5-3.2,7.5v21.7c0,1.1-.4,2-1.1,2.8-.7.8-1.7,1.1-2.8,1.1s-2.1-.4-2.8-1.1c-.7-.7-1.1-1.7-1.1-2.8V19.1c0-1.1.4-2,1.1-2.8.7-.8,1.6-1.1,2.7-1.1s2.1.4,2.8,1.1c.7.8,1.1,1.7,1.1,2.8v20.6c1.4-2.1,3.3-3.9,5.7-5.4,2.4-1.5,5-2.2,7.8-2.2,9.5,0,14.3,5.9,14.3,17.7Z"/>
        <path d="M555.6,55c-.8.7-1.7,1-2.7,1h-28.6c.4,4,1.9,7.1,4.5,9.5,2.6,2.4,5.8,3.6,9.6,3.6s4.7-.4,6.3-1.1c1.6-.8,3.1-1.7,4.3-2.9.8-.5,1.6-.7,2.4-.7s1.7.3,2.3,1c.6.7.9,1.4.9,2.3s-.5,2.2-1.6,3.1c-1.6,1.6-3.7,2.9-6.3,4-2.6,1.1-5.3,1.6-8,1.6-4.4,0-8.3-.9-11.6-2.8-3.3-1.8-5.9-4.4-7.7-7.7-1.8-3.3-2.7-7-2.7-11.2s.9-8.6,2.8-12c1.9-3.4,4.3-6.1,7.4-7.9,3.1-1.8,6.4-2.8,9.9-2.8s6.7.9,9.8,2.7c3,1.8,5.5,4.3,7.3,7.4,1.8,3.1,2.8,6.7,2.8,10.6,0,1-.5,1.8-1.2,2.5ZM529,41.6c-2.2,1.7-3.7,4.4-4.4,7.9h24v-.7c-.3-2.9-1.6-5.2-3.9-7.1-2.3-1.8-4.9-2.8-7.8-2.8s-5.7.9-7.9,2.6Z"/>
        <path d="M573,74.3c-.8.8-1.7,1.1-2.8,1.1s-2-.4-2.7-1.1c-.7-.8-1.1-1.7-1.1-2.8V19.1c0-1.1.4-2,1.1-2.8.8-.8,1.7-1.1,2.8-1.1s2,.4,2.7,1.1c.7.8,1.1,1.7,1.1,2.8v52.4c0,1.1-.4,2-1.1,2.8Z"/>
        <path d="M617.7,34.9c3,1.9,5.3,4.5,7,7.9,1.7,3.4,2.6,7.2,2.6,11.4s-.9,8-2.6,11.3c-1.7,3.3-4.1,6-7,7.8-3,1.9-6.3,2.8-9.8,2.8s-5.5-.6-7.9-1.9c-2.4-1.2-4.4-2.8-5.9-4.6v18.1c0,1.1-.4,2-1.1,2.8-.7.8-1.7,1.1-2.8,1.1s-2-.4-2.7-1.1c-.7-.7-1.1-1.7-1.1-2.8v-51.2c0-1.1.4-2.1,1.1-2.8.7-.8,1.6-1.1,2.8-1.1s2.1.4,2.8,1.1c.7.8,1.1,1.7,1.1,2.8v2.4c1.3-1.9,3.2-3.5,5.7-4.9,2.5-1.4,5.2-2,8-2s7,.9,10,2.8ZM613.6,67.1c2-1.3,3.6-3.1,4.7-5.3,1.1-2.2,1.7-4.8,1.7-7.6s-.6-5.4-1.7-7.6c-1.1-2.2-2.7-4-4.7-5.3-2-1.3-4.3-2-6.8-2s-4.8.6-6.8,1.9c-2,1.3-3.6,3.1-4.7,5.3-1.1,2.3-1.7,4.8-1.7,7.6s.6,5.4,1.7,7.6c1.1,2.3,2.7,4.1,4.7,5.3,2,1.3,4.3,1.9,6.8,1.9s4.7-.7,6.8-2Z"/>
        <path d="M693.3,33.5c.7.8,1.1,1.7,1.1,2.8v35.1c0,6.8-1.9,11.8-5.6,15.2-3.7,3.4-8.7,5-14.8,5s-4-.2-5.9-.6c-2-.4-3.6-.9-4.8-1.5-2-.9-3-2.2-3-3.7s0-.6.2-1.1c.3-.9.8-1.6,1.4-2.1.6-.5,1.3-.7,2-.7s.8,0,1.2.2c1.7.8,3.2,1.4,4.5,1.8,1.3.4,2.8.7,4.6.7,8.4,0,12.6-4.3,12.6-12.9v-1.6c-1.5,2-3.3,3.5-5.7,4.6-2.3,1.1-4.9,1.6-7.9,1.6-4.5,0-8-1.4-10.5-4.3-2.5-2.9-3.8-6.6-3.8-11.3v-24.3c0-1.1.4-2.1,1.1-2.8.7-.7,1.6-1.1,2.8-1.1s2.1.4,2.8,1.1c.7.8,1.1,1.7,1.1,2.8v22.3c0,3.6.8,6.2,2.4,7.9,1.6,1.7,4,2.6,7.2,2.6s5.6-1,7.6-2.9c2-2,3-4.5,3-7.6v-22.3c0-1.1.4-2.1,1.1-2.8.7-.7,1.6-1.1,2.8-1.1s2.1.4,2.8,1.1Z"/>
        <path d="M743,65.5c-1.9,3.4-4.5,6-7.8,7.9-3.3,1.9-6.9,2.8-10.9,2.8s-7.6-.9-10.9-2.8c-3.3-1.9-5.9-4.5-7.8-7.9-1.9-3.4-2.8-7.2-2.8-11.4s.9-8.1,2.8-11.5c1.9-3.4,4.5-6.1,7.8-8,3.3-1.9,6.9-2.8,10.9-2.8s7.6.9,10.9,2.8c3.3,1.9,5.9,4.6,7.8,8,1.9,3.4,2.8,7.2,2.8,11.5s-.9,8-2.8,11.4ZM736.3,46.3c-1.2-2.3-2.9-4.1-5-5.4-2.1-1.3-4.4-1.9-7-1.9s-4.9.6-7,1.9c-2.1,1.3-3.7,3.1-5,5.4-1.2,2.3-1.8,4.9-1.8,7.9s.6,5.5,1.8,7.7c1.2,2.3,2.9,4.1,5,5.3,2.1,1.3,4.4,1.9,7,1.9s4.9-.6,7-1.9c2.1-1.3,3.7-3.1,5-5.3,1.2-2.3,1.8-4.9,1.8-7.7s-.6-5.5-1.8-7.9Z"/>
        <path d="M789.3,34c.7.8,1.1,1.7,1.1,2.8v21.6c0,5.6-1.6,10-4.7,13.1-3.1,3.1-7.5,4.7-13.2,4.7s-10-1.6-13.1-4.7c-3.1-3.1-4.6-7.5-4.6-13.1v-21.6c0-1.1.4-2,1.1-2.8.7-.8,1.6-1.1,2.7-1.1s2.1.4,2.8,1.1c.7.8,1.1,1.7,1.1,2.8v21.6c0,7.1,3.3,10.7,10,10.7s5.8-.9,7.6-2.7c1.7-1.8,2.6-4.4,2.6-8v-21.6c0-1.1.4-2,1.1-2.8.7-.8,1.6-1.1,2.7-1.1s2.1.4,2.8,1.1Z"/>
        <path d="M838.8,23.9c-.8,1.1-1.3,2.4-1.3,4v5.7h8.1c1.1,0,2,.3,2.6,1,.7.7,1,1.5,1,2.6s-.3,1.9-1,2.5c-.7.7-1.6,1-2.6,1h-8.1v30.9c0,1.1-.4,2-1.1,2.8-.7.8-1.7,1.1-2.8,1.1s-2-.4-2.7-1.1c-.7-.8-1.1-1.7-1.1-2.8v-30.9h-5c-1,0-1.9-.3-2.6-1-.7-.7-1.1-1.5-1.1-2.5s.4-1.9,1.1-2.6c.7-.7,1.6-1,2.6-1h5v-5.7c0-3.8,1.2-6.8,3.7-9.1,2.4-2.2,5.9-3.4,10.3-3.4s3.5.3,4.9,1c1.4.7,2.1,1.7,2.1,3.1s-.3,1.9-.9,2.6c-.6.7-1.4,1-2.2,1s-.8-.1-1.8-.3c-1.2-.3-2.2-.5-3.1-.5-1.8,0-3.1.5-3.9,1.6Z"/>
        <path d="M893.7,65.5c-1.9,3.4-4.5,6-7.8,7.9-3.3,1.9-6.9,2.8-10.9,2.8s-7.6-.9-10.9-2.8c-3.3-1.9-5.9-4.5-7.8-7.9-1.9-3.4-2.8-7.2-2.8-11.4s.9-8.1,2.8-11.5c1.9-3.4,4.5-6.1,7.8-8,3.3-1.9,6.9-2.8,10.9-2.8s7.6.9,10.9,2.8c3.3,1.9,5.9,4.6,7.8,8,1.9,3.4,2.8,7.2,2.8,11.5s-.9,8-2.8,11.4ZM887,46.3c-1.2-2.3-2.9-4.1-5-5.4-2.1-1.3-4.4-1.9-7-1.9s-4.9.6-7,1.9c-2.1,1.3-3.7,3.1-5,5.4-1.2,2.3-1.8,4.9-1.8,7.9s.6,5.5,1.8,7.7c1.2,2.3,2.9,4.1,5,5.3,2.1,1.3,4.4,1.9,7,1.9s4.9-.6,7-1.9c2.1-1.3,3.7-3.1,5-5.3,1.2-2.3,1.8-4.9,1.8-7.7s-.6-5.5-1.8-7.9Z"/>
        <path d="M934.8,33.9c2.8,1.4,4.3,3.1,4.3,5.2s-.3,1.7-.9,2.5c-.6.7-1.4,1.1-2.3,1.1s-1.3-.1-1.7-.3c-.4-.2-1-.6-1.7-1.1-.3-.3-.8-.7-1.5-1.1-.7-.3-1.6-.6-2.8-.8-1.2-.2-2.3-.3-3.3-.3-2.8,0-5.3.7-7.5,2-2.2,1.3-3.9,3.1-5,5.4-1.2,2.3-1.8,4.9-1.8,7.7s.6,5.5,1.7,7.7c1.2,2.3,2.8,4.1,4.9,5.4,2.1,1.3,4.5,2,7.2,2s5.1-.4,6.8-1.3c.4-.2.9-.6,1.5-1.1.5-.4,1-.8,1.4-1,.4-.2.9-.3,1.5-.3,1.1,0,1.9.3,2.6,1,.6.7.9,1.6.9,2.6s-.7,2.3-2.2,3.4c-1.4,1.1-3.4,2-5.8,2.7-2.4.7-5,1.1-7.8,1.1-4.1,0-7.8-1-10.9-2.9-3.1-1.9-5.6-4.6-7.3-8-1.7-3.4-2.6-7.2-2.6-11.3s.9-8,2.7-11.3c1.8-3.4,4.3-6,7.5-8,3.2-1.9,6.9-2.9,11-2.9s7.9.7,10.7,2Z"/>
        <path d="M981.9,34c.7.8,1.1,1.7,1.1,2.8v21.6c0,5.6-1.6,10-4.7,13.1-3.1,3.1-7.5,4.7-13.2,4.7s-10-1.6-13.1-4.7c-3.1-3.1-4.6-7.5-4.6-13.1v-21.6c0-1.1.4-2,1.1-2.8.7-.8,1.6-1.1,2.7-1.1s2.1.4,2.8,1.1c.7.8,1.1,1.7,1.1,2.8v21.6c0,7.1,3.3,10.7,10,10.7s5.8-.9,7.6-2.7c1.7-1.8,2.6-4.4,2.6-8v-21.6c0-1.1.4-2,1.1-2.8.7-.8,1.6-1.1,2.7-1.1s2.1.4,2.8,1.1Z"/>
        <path d="M991.3,66.6c0-1.1.6-2,1.7-2.8.5-.4,1.2-.6,1.9-.6s1.9.4,2.7,1.2c1.6,1.8,3.4,3.2,5.2,4.1,1.9.9,4.1,1.4,6.7,1.4,2.1,0,3.9-.5,5.5-1.4,1.6-.9,2.4-2.3,2.4-4.4s-.8-3.3-2.4-4.2c-1.6-1-3.9-1.9-7-2.7-3-.8-5.6-1.7-7.6-2.6-2-.9-3.7-2.2-5.1-3.9-1.4-1.7-2.1-3.9-2.1-6.7s.7-4.6,2.1-6.4c1.4-1.8,3.2-3.3,5.5-4.3,2.3-1,4.8-1.5,7.5-1.5s5.2.5,7.8,1.5c2.6,1,4.7,2.5,6.3,4.5.7.8,1,1.5,1,2.4s-.4,1.7-1.3,2.5c-.5.5-1.2.7-2,.7s-1.8-.3-2.4-1c-1.1-1.3-2.5-2.3-4.2-3-1.7-.7-3.5-1.1-5.5-1.1s-3.8.4-5.2,1.3c-1.4.8-2.2,2.3-2.2,4.3,0,1.9.9,3.3,2.5,4.2,1.6.9,4.1,1.8,7.4,2.7,2.9.8,5.3,1.6,7.2,2.4,1.9.9,3.5,2.2,4.8,3.9,1.3,1.7,2,3.9,2,6.7s-.7,4.8-2.2,6.6c-1.5,1.9-3.4,3.3-5.7,4.3s-4.9,1.5-7.5,1.5-6.6-.6-9.5-1.8c-2.9-1.2-5.4-3.1-7.4-5.7-.5-.8-.7-1.5-.7-2.2Z"/>
        <path d="M132.6,163.1c-1.9,3.4-4.5,6-7.8,7.9-3.3,1.9-6.9,2.8-10.9,2.8s-7.6-.9-10.9-2.8c-3.3-1.9-5.9-4.5-7.8-7.9-1.9-3.4-2.8-7.2-2.8-11.4s.9-8.1,2.8-11.5c1.9-3.4,4.5-6.1,7.8-8,3.3-1.9,6.9-2.8,10.9-2.8s7.6.9,10.9,2.8c3.3,1.9,5.9,4.6,7.8,8,1.9,3.4,2.8,7.2,2.8,11.5s-.9,8-2.8,11.4ZM125.9,143.9c-1.2-2.3-2.9-4.1-5-5.4-2.1-1.3-4.4-1.9-7-1.9s-4.9.6-7,1.9c-2.1,1.3-3.7,3.1-5,5.4-1.2,2.3-1.8,4.9-1.8,7.9s.6,5.5,1.8,7.7c1.2,2.3,2.9,4.1,5,5.3,2.1,1.3,4.4,1.9,7,1.9s4.9-.6,7-1.9c2.1-1.3,3.7-3.1,5-5.3,1.2-2.3,1.8-4.9,1.8-7.7s-.6-5.5-1.8-7.9Z"/>
        <path d="M180.7,147v22.1c0,1.1-.4,2-1.1,2.8-.7.8-1.7,1.1-2.8,1.1s-2-.4-2.7-1.1c-.7-.8-1.1-1.7-1.1-2.8v-22c0-3.2-.7-5.7-2.2-7.6-1.5-1.9-3.9-2.8-7.2-2.8s-4.1.5-5.9,1.4c-1.8.9-3.1,2.2-4.1,3.8-1,1.6-1.5,3.3-1.5,5.2v22c0,1.1-.4,2-1.1,2.8-.7.8-1.7,1.1-2.8,1.1s-2.1-.4-2.8-1.1c-.7-.7-1.1-1.7-1.1-2.8v-34.8c0-1.1.4-2,1.1-2.8.7-.8,1.6-1.1,2.7-1.1s2.1.4,2.8,1.1c.7.8,1.1,1.7,1.1,2.8v2.8c1.4-2.2,3.4-4,5.9-5.5,2.5-1.5,5.2-2.2,8.1-2.2,9.8,0,14.6,5.9,14.6,17.6Z"/>
        <path d="M267.2,131.1c.7.7,1.1,1.7,1.1,2.8s-.1.9-.3,1.5l-12.4,35.1c-.3.9-.9,1.5-1.6,2-.8.4-1.6.6-2.4.5-1.5-.1-2.6-.9-3.3-2.4l-8.5-22.1-7.8,22.1c-.3.8-.8,1.3-1.4,1.7-.6.4-1.2.6-2,.7-.8.1-1.6,0-2.4-.5-.8-.5-1.3-1.1-1.6-1.9l-12.6-35.1c-.2-.5-.2-1-.2-1.5,0-1.1.4-2,1.1-2.8.7-.8,1.6-1.1,2.8-1.1,1.8,0,3,.8,3.6,2.4l9.7,27.4,7.7-20.3c.7-1.6,1.8-2.4,3.6-2.4s2.7.8,3.3,2.4l7.9,19.9,9.5-27.1c.6-1.6,1.8-2.4,3.7-2.4s1.9.4,2.6,1.1Z"/>
        <path d="M312.3,147.4v21.7c0,1.1-.4,2-1.1,2.8-.7.8-1.7,1.1-2.8,1.1s-2-.4-2.7-1.1c-.7-.8-1.1-1.7-1.1-2.8v-21.7c0-7-3-10.6-8.9-10.6s-5.9,1-8,3.1c-2.1,2-3.2,4.5-3.2,7.5v21.7c0,1.1-.4,2-1.1,2.8-.7.8-1.7,1.1-2.8,1.1s-2.1-.4-2.8-1.1c-.7-.7-1.1-1.7-1.1-2.8v-52.4c0-1.1.4-2,1.1-2.8.7-.8,1.6-1.1,2.7-1.1s2.1.4,2.8,1.1c.7.8,1.1,1.7,1.1,2.8v20.6c1.4-2.1,3.3-3.9,5.7-5.4,2.4-1.5,5-2.2,7.8-2.2,9.5,0,14.3,5.9,14.3,17.7Z"/>
        <path d="M361.2,131c.7.7,1.1,1.7,1.1,2.9v35.3c0,1.1-.4,2-1.1,2.8-.7.8-1.7,1.1-2.8,1.1s-2.1-.4-2.8-1.1c-.7-.7-1.1-1.7-1.1-2.8v-2.1c-1.4,1.9-3.3,3.5-5.8,4.8-2.4,1.3-5.1,2-7.9,2s-7-.9-10-2.8c-3-1.9-5.4-4.5-7.1-7.9-1.7-3.4-2.6-7.2-2.6-11.4s.9-8,2.6-11.4c1.7-3.4,4.1-6,7-7.9,3-1.9,6.3-2.8,9.8-2.8s5.5.6,8,1.8c2.5,1.2,4.4,2.7,5.9,4.6v-2c0-1.1.4-2.1,1.1-2.8.7-.8,1.6-1.1,2.8-1.1s2.1.4,2.8,1.1ZM348.6,164.8c2-1.3,3.5-3.1,4.6-5.4,1.1-2.3,1.7-4.9,1.7-7.7s-.6-5.4-1.7-7.6c-1.1-2.3-2.7-4.1-4.6-5.4-2-1.3-4.2-2-6.8-2s-4.8.7-6.8,2c-2,1.3-3.5,3.1-4.6,5.4-1.1,2.3-1.7,4.9-1.7,7.7s.6,5.5,1.7,7.7c1.1,2.3,2.7,4.1,4.6,5.4,2,1.3,4.2,2,6.8,2s4.8-.7,6.8-2Z"/>
        <path d="M385.3,138v24.2c0,2.7,1.2,4.1,3.7,4.1s.9,0,1.5-.3c.7-.2,1.2-.3,1.5-.3.7,0,1.3.3,1.8.9.5.6.7,1.4.7,2.3s-.7,2.1-2,2.9-2.8,1.2-4.4,1.2-3.4-.2-4.9-.6c-1.5-.4-2.8-1.3-4-2.9-1.2-1.5-1.7-3.9-1.7-7v-24.6h-4.7c-1,0-1.9-.3-2.6-1-.7-.7-1-1.5-1-2.6s.3-1.9,1-2.5c.7-.7,1.5-1,2.6-1h4.7v-6.8c0-1.1.4-2,1.1-2.8.7-.8,1.7-1.1,2.8-1.1s2,.4,2.7,1.1c.7.8,1.1,1.7,1.1,2.8v6.8h6.8c1,0,1.9.3,2.6,1,.7.7,1,1.5,1,2.6s-.3,1.9-1,2.5c-.7.7-1.5,1-2.6,1h-6.8Z"/>
        <path d="M490.3,147.4v21.7c0,1.1-.4,2.1-1.1,2.8-.7.7-1.6,1.1-2.8,1.1s-2.1-.4-2.8-1.1c-.7-.8-1.1-1.7-1.1-2.8v-21.6c0-7.1-3-10.7-8.9-10.7s-4,.5-5.7,1.4c-1.7.9-3,2.2-4,3.9-.9,1.6-1.4,3.4-1.4,5.4v21.6c0,1.1-.4,2-1.1,2.8-.7.8-1.7,1.1-2.8,1.1s-2.1-.4-2.8-1.1c-.7-.7-1.1-1.7-1.1-2.8v-21.7c0-3.2-.7-5.8-2-7.7-1.4-1.9-3.6-2.9-6.8-2.9s-5.8,1-7.9,3.1c-2.1,2-3.1,4.5-3.1,7.5v21.7c0,1.1-.4,2-1.1,2.8-.7.8-1.7,1.1-2.8,1.1s-2.1-.4-2.8-1.1c-.7-.7-1.1-1.7-1.1-2.8v-34.8c0-1.1.4-2,1.1-2.8.7-.8,1.6-1.1,2.7-1.1s2.1.4,2.8,1.1c.7.8,1.1,1.7,1.1,2.8v2.8c1.4-2.1,3.3-3.9,5.7-5.3,2.4-1.4,4.9-2.2,7.7-2.2,6.7,0,11.1,3,13.1,8.9,1.2-2.3,3.2-4.3,5.9-6.2,2.8-1.8,5.7-2.8,8.8-2.8,9.5,0,14.2,5.9,14.2,17.7Z"/>
        <path d="M539.3,131c.7.7,1.1,1.7,1.1,2.9v35.3c0,1.1-.4,2-1.1,2.8-.7.8-1.7,1.1-2.8,1.1s-2.1-.4-2.8-1.1c-.7-.7-1.1-1.7-1.1-2.8v-2.1c-1.4,1.9-3.3,3.5-5.8,4.8-2.4,1.3-5.1,2-7.9,2s-7-.9-10-2.8c-3-1.9-5.4-4.5-7.1-7.9-1.7-3.4-2.6-7.2-2.6-11.4s.9-8,2.6-11.4c1.7-3.4,4.1-6,7-7.9,3-1.9,6.3-2.8,9.8-2.8s5.5.6,8,1.8c2.5,1.2,4.4,2.7,5.9,4.6v-2c0-1.1.4-2.1,1.1-2.8.7-.8,1.6-1.1,2.8-1.1s2.1.4,2.8,1.1ZM526.6,164.8c2-1.3,3.5-3.1,4.6-5.4,1.1-2.3,1.7-4.9,1.7-7.7s-.6-5.4-1.7-7.6c-1.1-2.3-2.7-4.1-4.6-5.4-2-1.3-4.2-2-6.8-2s-4.8.7-6.8,2c-2,1.3-3.5,3.1-4.6,5.4-1.1,2.3-1.7,4.9-1.7,7.7s.6,5.5,1.7,7.7c1.1,2.3,2.7,4.1,4.6,5.4,2,1.3,4.2,2,6.8,2s4.8-.7,6.8-2Z"/>
        <path d="M563.4,138v24.2c0,2.7,1.2,4.1,3.7,4.1s.9,0,1.5-.3c.7-.2,1.2-.3,1.5-.3.7,0,1.3.3,1.8.9.5.6.7,1.4.7,2.3s-.7,2.1-2,2.9-2.8,1.2-4.4,1.2-3.4-.2-4.9-.6c-1.5-.4-2.8-1.3-4-2.9-1.2-1.5-1.7-3.9-1.7-7v-24.6h-4.7c-1,0-1.9-.3-2.6-1-.7-.7-1-1.5-1-2.6s.3-1.9,1-2.5c.7-.7,1.5-1,2.6-1h4.7v-6.8c0-1.1.4-2,1.1-2.8.7-.8,1.7-1.1,2.8-1.1s2,.4,2.7,1.1c.7.8,1.1,1.7,1.1,2.8v6.8h6.8c1,0,1.9.3,2.6,1,.7.7,1,1.5,1,2.6s-.3,1.9-1,2.5c-.7.7-1.5,1-2.6,1h-6.8Z"/>
        <path d="M594.3,138v24.2c0,2.7,1.2,4.1,3.7,4.1s.9,0,1.5-.3c.7-.2,1.2-.3,1.5-.3.7,0,1.3.3,1.8.9.5.6.7,1.4.7,2.3s-.7,2.1-2,2.9c-1.3.8-2.8,1.2-4.4,1.2s-3.4-.2-4.9-.6c-1.5-.4-2.8-1.3-4-2.9-1.2-1.5-1.7-3.9-1.7-7v-24.6h-4.7c-1,0-1.9-.3-2.6-1-.7-.7-1-1.5-1-2.6s.3-1.9,1-2.5c.7-.7,1.5-1,2.6-1h4.7v-6.8c0-1.1.4-2,1.1-2.8.7-.8,1.7-1.1,2.8-1.1s2,.4,2.7,1.1c.7.8,1.1,1.7,1.1,2.8v6.8h6.8c1,0,1.9.3,2.6,1,.7.7,1,1.5,1,2.6s-.3,1.9-1,2.5c-.7.7-1.5,1-2.6,1h-6.8Z"/>
        <path d="M649.4,152.6c-.8.7-1.7,1-2.7,1h-28.6c.4,4,1.9,7.1,4.5,9.5,2.6,2.4,5.8,3.6,9.6,3.6s4.7-.4,6.3-1.1c1.6-.8,3.1-1.7,4.3-2.9.8-.5,1.6-.7,2.4-.7s1.7.3,2.3,1c.6.7.9,1.4.9,2.3s-.5,2.2-1.6,3.1c-1.6,1.6-3.7,2.9-6.3,4s-5.3,1.6-8,1.6c-4.4,0-8.3-.9-11.6-2.8-3.3-1.8-5.9-4.4-7.7-7.7-1.8-3.3-2.7-7-2.7-11.2s.9-8.6,2.8-12c1.9-3.4,4.3-6.1,7.4-7.9,3.1-1.8,6.4-2.8,9.9-2.8s6.7.9,9.8,2.7,5.5,4.3,7.3,7.4c1.8,3.1,2.8,6.7,2.8,10.6,0,1-.5,1.8-1.2,2.5ZM622.8,139.2c-2.2,1.7-3.7,4.4-4.4,7.9h24v-.7c-.3-2.9-1.6-5.2-3.9-7.1-2.3-1.8-4.9-2.8-7.8-2.8s-5.7.9-7.9,2.6Z"/>
        <path d="M684.5,130.6c1,.7,1.5,1.6,1.5,2.7s-.3,2.3-1,3c-.7.7-1.5,1-2.5,1s-1.2-.2-2.2-.5c-1.1-.4-2-.6-2.7-.6-1.7,0-3.3.6-4.9,1.7-1.6,1.2-2.9,2.8-3.9,4.8-1,2-1.5,4.3-1.5,6.8v19.6c0,1.1-.4,2-1.1,2.8-.7.8-1.7,1.1-2.8,1.1s-2.1-.4-2.8-1.1c-.7-.7-1.1-1.7-1.1-2.8v-34.8c0-1.1.4-2,1.1-2.8.7-.8,1.6-1.1,2.7-1.1s2.1.4,2.8,1.1c.7.8,1.1,1.7,1.1,2.8v4.1c1.2-2.7,3-4.8,5.4-6.5,2.4-1.7,5.1-2.5,8.1-2.6,1.4,0,2.6.4,3.7,1.1Z"/>
        <path d="M690,164.2c0-1.1.6-2,1.7-2.8.5-.4,1.2-.6,1.9-.6s1.9.4,2.7,1.2c1.6,1.8,3.4,3.2,5.2,4.1,1.9.9,4.1,1.4,6.7,1.4,2.1,0,3.9-.5,5.5-1.4,1.6-.9,2.4-2.3,2.4-4.4s-.8-3.3-2.4-4.2c-1.6-1-3.9-1.9-7-2.7-3-.8-5.6-1.7-7.6-2.6-2-.9-3.7-2.2-5.1-3.9-1.4-1.7-2.1-3.9-2.1-6.7s.7-4.6,2.1-6.4c1.4-1.8,3.2-3.3,5.5-4.3,2.3-1,4.8-1.5,7.5-1.5s5.2.5,7.8,1.5c2.6,1,4.7,2.5,6.3,4.5.7.8,1,1.5,1,2.4s-.4,1.7-1.3,2.5c-.5.5-1.2.7-2,.7s-1.8-.3-2.4-1c-1.1-1.3-2.5-2.3-4.2-3-1.7-.7-3.5-1.1-5.5-1.1s-3.8.4-5.2,1.3c-1.4.8-2.2,2.3-2.2,4.3,0,1.9.9,3.3,2.5,4.2,1.6.9,4.1,1.8,7.4,2.7,2.9.8,5.3,1.6,7.2,2.4,1.9.9,3.5,2.2,4.8,3.9,1.3,1.7,2,3.9,2,6.7s-.7,4.8-2.2,6.6c-1.5,1.9-3.4,3.3-5.7,4.3-2.4,1-4.9,1.5-7.5,1.5s-6.6-.6-9.5-1.8c-2.9-1.2-5.4-3.1-7.4-5.7-.5-.8-.7-1.5-.7-2.2Z"/>
        <path d="M815.4,133.6c2.1,3.3,3.1,7.8,3.1,13.6v20.8c0,1.4-.5,2.6-1.4,3.5-.9.9-2.1,1.4-3.5,1.4s-2.6-.5-3.5-1.4c-.9-.9-1.4-2.1-1.4-3.5v-20.8c0-3-.6-5.3-1.7-7-1.2-1.7-3.2-2.6-6.1-2.6s-5.4.9-7.1,2.7c-1.7,1.8-2.6,4.1-2.6,6.9v20.8c0,1.4-.5,2.6-1.4,3.5-.9.9-2.1,1.4-3.5,1.4s-2.6-.5-3.5-1.4c-.9-.9-1.4-2.1-1.4-3.5v-20.8c0-3-.6-5.3-1.7-7-1.2-1.7-3.2-2.6-6.1-2.6s-5.4.9-7.1,2.7c-1.7,1.8-2.6,4.1-2.6,6.9v20.8c0,1.4-.5,2.6-1.4,3.5-.9.9-2.1,1.4-3.5,1.4s-2.6-.5-3.5-1.4c-.9-.9-1.4-2.1-1.4-3.5v-33.6c0-1.4.5-2.6,1.4-3.5.9-.9,2.1-1.4,3.5-1.4s2.6.5,3.5,1.4c.9.9,1.4,2.1,1.4,3.5v1.3c1.5-2,3.3-3.6,5.6-5,2.2-1.4,4.8-2.1,7.5-2.1,6.8,0,11.2,3,13.1,8.9,1.2-2.3,3.1-4.3,5.7-6.2,2.5-1.8,5.4-2.8,8.6-2.8,5.4,0,9.1,1.6,11.1,4.9Z"/>
        <path d="M867.9,163c-2,3.4-4.6,6.1-8,8-3.4,1.9-7.1,2.8-11.2,2.8s-7.9-.9-11.2-2.8c-3.4-1.9-6-4.6-8-8-2-3.4-2.9-7.3-2.9-11.7s1-8.2,2.9-11.7c2-3.4,4.6-6.1,8-8.1,3.4-1.9,7.1-2.9,11.2-2.9s7.8,1,11.2,2.9c3.4,1.9,6.1,4.6,8,8.1,2,3.4,2.9,7.3,2.9,11.7s-1,8.2-2.9,11.7ZM859.4,144.2c-1.1-2.1-2.6-3.7-4.5-4.8s-3.9-1.7-6.2-1.7-4.4.6-6.2,1.7-3.4,2.8-4.5,4.8c-1.1,2.1-1.7,4.5-1.7,7.1s.6,5,1.7,7.1c1.1,2.1,2.6,3.7,4.5,4.8,1.9,1.1,3.9,1.7,6.2,1.7s4.4-.6,6.2-1.7c1.9-1.1,3.4-2.7,4.5-4.8,1.1-2.1,1.7-4.4,1.7-7.1s-.6-5-1.7-7.1Z"/>
        <path d="M875.7,163.9c0-1.4.7-2.6,2.1-3.6.8-.5,1.5-.7,2.4-.7s2.2.5,3.3,1.5c1.6,1.7,3.3,2.9,5.1,3.7,1.8.8,3.9,1.2,6.4,1.2,4.2-.2,6.3-1.8,6.3-4.8s-.7-2.8-2.2-3.6c-1.4-.8-3.7-1.6-6.7-2.4-3.1-.9-5.7-1.7-7.7-2.6-2-.9-3.7-2.2-5.1-3.9-1.4-1.8-2.2-4.1-2.2-7.1s.7-4.9,2.2-6.8c1.5-1.9,3.4-3.4,5.9-4.5,2.4-1.1,5-1.6,7.7-1.6s5.5.5,8.3,1.5c2.8,1,4.9,2.5,6.5,4.6.7.9,1.1,1.8,1.1,2.9s-.5,2.3-1.5,3.1c-.8.6-1.6.9-2.6.9s-2.2-.4-2.9-1.1c-1-1.2-2.2-2.1-3.8-2.8-1.5-.7-3.3-1.1-5.2-1.1-4.1,0-6.2,1.5-6.2,4.5s.4,2.2,1.1,2.9c.8.7,1.7,1.3,2.9,1.7s2.8.9,4.9,1.5c2.9.8,5.4,1.7,7.3,2.5,2,.9,3.6,2.2,5,4,1.4,1.8,2,4.1,2,7.1s-.8,5-2.4,7c-1.6,2-3.6,3.5-6.1,4.5-2.5,1-5,1.5-7.6,1.5s-6.9-.6-10-1.8-5.6-3.1-7.6-5.8c-.5-.7-.7-1.5-.7-2.4Z"/>
        <path d="M941.3,165c.6.7.9,1.7.9,2.9s-.8,2.7-2.4,3.7c-1.6,1-3.4,1.5-5.4,1.5-3.4,0-6.2-.7-8.5-2.2-2.3-1.4-3.5-4.5-3.5-9.2v-22.5h-3.7c-1.3,0-2.4-.4-3.3-1.3-.9-.9-1.3-2-1.3-3.3s.4-2.3,1.3-3.1c.9-.8,2-1.3,3.3-1.3h3.7v-5.2c0-1.4.5-2.6,1.4-3.5.9-.9,2.1-1.4,3.5-1.4s2.5.5,3.4,1.4c.9.9,1.4,2.1,1.4,3.5v5.2h5.8c1.3,0,2.4.4,3.3,1.3.9.9,1.3,2,1.3,3.3s-.4,2.3-1.3,3.1c-.9.8-2,1.3-3.3,1.3h-5.8v22c0,1.1.3,2,.9,2.5.6.5,1.4.8,2.4.8s1-.1,1.8-.3c.7-.3,1.3-.4,1.9-.4s1.5.4,2.1,1.1Z"/>
        <path d="M951.8,171.9c-.7-.7-1-1.7-1-3.1v-1.5c0-1.3.3-2.3,1-3,.7-.7,1.7-1.1,3-1.1h.8c1.4,0,2.4.4,3.1,1.1.7.7,1,1.7,1,3v1.5c0,2.8-1.4,4.1-4.1,4.1h-.8c-1.3,0-2.3-.4-3-1.1Z"/>
      </g>
      <path class="cls-7" d="M509.8,337.2c45.4-9.7,71.3-42.1,64.8-90.8"/>
    </g>
  </g>
</svg>