<?xml version="1.0" encoding="UTF-8"?>
<svg xmlns="http://www.w3.org/2000/svg" width="854.6" height="1009.2" version="1.1" viewBox="0 0 854.6 1009.2">
  <defs>
    <style>
      .cls-1, .cls-2 {
        fill: #8c2cbf;
      }

      .cls-3 {
        fill: #0c050e;
      }

      .cls-4 {
        fill: #f8defd;
      }

      .cls-5, .cls-6 {
        fill: none;
      }

      .cls-5, .cls-6, .cls-7, .cls-8, .cls-2 {
        stroke: #0c050e;
        stroke-miterlimit: 10;
      }

      .cls-5, .cls-8, .cls-2 {
        stroke-width: 4.1px;
      }

      .cls-6 {
        stroke-width: 4.2px;
      }

      .cls-9 {
        fill: #7d2d8d;
      }

      .cls-10 {
        fill: #ebe4d7;
      }

      .cls-11 {
        fill: #fcfaf3;
      }

      .cls-7 {
        stroke-width: 4px;
      }

      .cls-7, .cls-8 {
        fill: #569ce2;
      }

      .cls-12 {
        fill: #507dab;
      }

      .cls-13 {
        fill: #6d269b;
      }
    </style>
  </defs>
  <!-- Generator: Adobe Illustrator 28.6.0, SVG Export Plug-In . SVG Version: 1.2.0 Build 709)  -->
  <g>
    <g id="Layer_1">
      <g id="Layer_1-2" data-name="Layer_1">
        <g>
          <path class="cls-1" d="M427,996.8c-57.2-.3-71.9-156-73.1-193.9-8.5,26.8,1.6,197.4-57.6,186.9-60.8-10.8-81.7-170.3-85.1-246.5-1.6-35.6,7.1-184.1,27.1-232-2.1-7.1-1.9-6.5-2.3-6.5C75.8,510.4,21.6,256.5,31.9,146.2c3.5-37.1,117.6-16.6,123,34.2,8.2,76.5,34.6,152.2,94.9,196.8-.6-3.4-.7-3.6-1.2-5.2-1-3.2-2.1-4.6-4.2-7.1-23.3-27.3-33.2-79.1-33.7-115.2-.2-13.5,0-29.9,0-45.3.7-136.4,64.2-193.5,201.5-194.7,5,0,19.3-.1,24.6,0,141.2,1.3,201.3,53.7,202.6,194.4,0,14.2,0,32.6,0,45.7-.4,34.7-8.8,90.3-32.7,115.7-2.9,3.3-4.9,5.8-6.4,10.8,60.5-45,86.2-119.3,94.1-194.6,5.6-53.1,119.7-72,123.1-35.3,10.5,110.1-43.8,358-201.7,361.9,18.5,55,29.6,199.8,28.3,236.7-2.7,78.8-25.2,233-86.8,244.5-59.5,11.2-49.8-158.6-58-184.9-1.5,37.5-15.9,191.8-72.6,192"/>
          <path class="cls-13" d="M696.2,196.7c-6.5,58.3-28.2,162.8-83.2,192.6-12.3,6.8-31.1,3.7-26-13.4,4.2-13.9,22.2-19,31.5-28.1-3.2,5.8-8,13.1-12.1,17.7-3.1,3.5-2.5,4.6-4.5,8.9,8.5-6.5.9.9,11.4-9.2,20.4-19.5,43.8-50.8,55.6-80.2s18.9-57.6,23.8-88.4c.3-3.1,1.8-2,3.3,0h.2Z"/>
          <path class="cls-13" d="M242.8,391.9h-.3c-.4-.1-1.4,0-1.4-.5h0c-.8-.4-1.9-.7-2.6-1.1-56.7-28.7-78.4-134.5-84.9-193.8,2.6,7,1.3-15.6,3.9,3.9,2.6,19.4,12.7,59.4,22.9,85.2s38.9,64.5,54.4,78.5,3.5,5,15.3,11c-1.1-.9-.2.2-.3,0h0c-1.4-4.2-1-5.6-4.5-9.7-3.5-4-9.1-12.1-11.9-17.5,9.4,8.2,28.2,14.1,31.6,27.9,3.1,12.9-10.3,19.7-22,16.1h-.2Z"/>
          <path class="cls-4" d="M253.9,446.5c-4-1.2-10.5,1.2-18.4-2.5-17.2-8.1-20.1-6-43.9-40.1-23.8-34.1-48.6-104.7-55-152.2-3.4-10.8-4-17-5.6-26.4-3.1-1.3-.1-2.6-8.1,1-8,3.6-31.3,6.9-43.3.9-8.2-3.3-15.3-6.4-23.1-10.3-.4,6-.8-1.5-.9,7-.6,42.7,8.3,98.5,20.3,139,12.1,40.9,26.2,71.8,53.5,100,27.3,28.2,65.8,40.8,103.4,42.8,7,0,7.9-8.3,9.9-17.4s11.2-41.6,11.2-41.6v-.2Z"/>
          <path class="cls-4" d="M601.2,448.7c-.4-2.1-3.5-3.6,5.3-4.9,23.7-3.7,28.1-4.9,52.8-39.7,24.8-34.8,48.2-104.5,55.4-152.5,3.2-10.7,4.5-16.9,5.6-26.3.6-4.6,0-2.4,8.1.9,6.1,2.5,21.2,5.9,33.4,3.7,3.7-.7,18-3.8,20.7-5.2,10.3-5.5,13.3-12.7,13.3,2.6,0,30.1-8,88.1-17.9,126.2s-29,80.3-57,108.3c-28,27.9-64.3,45.1-102.2,46.8-5.1-.3-3.7-7.8-5.5-15.9s-9.8-32.5-12.1-43.9h.1Z"/>
          <path class="cls-13" d="M368,472.5c-35.7,68.6-42.6,178.9-42,253.2s14.7,160.1,6.7,231.9c16.3-32.3,18.4-112.1,21.1-145.9-3.3-50.4-3.5-84.8-1.7-139,2-60.6,8.7-136.8,15.9-200.1h0Z"/>
          <path class="cls-13" d="M485.8,475.5c35.4,66.9,44.2,181.5,42.4,253.9-1.8,72.5-16.2,161.1-7.4,231.4-16.6-31.3-18.9-112.8-21.2-145.7,3.5-50.5,5.6-85.1,3.2-139.4-2.8-60.6-9.8-136.9-16.9-200.3h-.1Z"/>
          <path class="cls-5" d="M427,996.8c-57.2-.3-72.8-157.6-74-195.5-1.9,31.3,2.4,199-56.7,188.5-60.8-10.8-81.7-170.3-85.1-246.5-1.1-23.5,1.6-96.5,9.5-158.4,4.1-32,13.3-64.5,16.9-78.9,0,0-1.2-1.2-1.6-1.2C75.8,510.4,21.6,256.5,31.9,146.2c3.5-37.7,117.6-16.2,123,34.2,8.2,76.5,34.6,152.2,94.9,196.8-.6-3.4-.7-3.6-1.2-5.2-1-3.2-2.1-4.6-4.2-7.1-23.3-27.3-33.2-79.1-33.7-115.2-.2-13.5,0-29.9,0-45.3.7-136.4,64.2-193.5,201.5-194.7,5,0,19.3-.1,24.6,0,141.2,1.3,201.3,53.7,202.6,194.4,0,14.2,0,32.6,0,45.7-.4,34.7-8.8,90.3-32.7,115.7-2.9,3.3-4.9,5.8-6.4,10.8,60.5-45,86.2-119.3,94.1-194.6,5.6-53.6,119.7-71.4,123.1-35.3,10.5,110.1-43.8,358-201.7,361.9,3.2,16,8.2,30.6,11.7,50.7,11.3,66.1,17.6,157.8,16.6,186-2.7,78.8-25.2,233-86.8,244.5-59.5,11.2-56.5-156.9-57.2-186.8-4.7,37-16.7,193.7-73.4,193.9"/>
          <path class="cls-3" d="M375.7,403.8c-.6,11.9-1.8,25.4-2.9,37.3-5.4,52.3-11.7,108.9-14.9,161.2-2.2,33-3.9,66.3-4.5,99.4-.6,24.8-.7,49.8.6,74.6l1.1,24.9-4.1.2c-2.3-33.1-3.7-66.6-2.8-99.8,1.1-66.5,6.2-132.9,13.4-199.1,3.6-33.1,7.4-66.1,14.1-98.7h0Z"/>
          <path class="cls-3" d="M275,403.8c-19.5,31.4-23,68.8-35.4,103l-3.9-1.3c10.8-33.9,14.9-74.2,39.3-101.7h0Z"/>
          <path class="cls-3" d="M578.7,403.9c24.2,27.4,32.3,69.2,39.3,104.2l-4,.9c-8.4-35.6-15.9-73.6-35.3-105.1h0Z"/>
          <path class="cls-3" d="M482.3,403.8c10.4,66,15.9,132.6,20.8,199.2,3.8,58.3,4.5,116.9,1.2,175.3-.5,8.3-1,16.7-1.9,25.1l-4-.4c.8-8.2,1.2-16.5,1.6-24.8,1.5-33.1,2.1-66.7,1.5-99.9-1.2-58.3-5.5-116.5-10.9-174.6-2.7-29-7.1-70.9-8.2-99.8h-.1Z"/>
          <path class="cls-5" d="M254.6,444.8c-76.4,11-116.3-178.1-123.9-222.3"/>
          <path class="cls-5" d="M55.4,215.4c0,81.2,19.2,202,84.9,255.8"/>
          <path class="cls-5" d="M599.1,443.6c75.1,7.8,114.6-178.7,122.2-222.5"/>
          <path class="cls-5" d="M796.4,216.2c2.1,78.9-22.4,202.2-85.5,253.9"/>
          <g>
            <path class="cls-7" d="M194.5,482.4c10.6,4.5,26.5,8,31.6-4.9,5-12.9-10.4-19.2-19.8-23.3-9.4-4.1-24.2-9.6-29.6,2.1-5.9,12.8,7.2,21.6,17.8,26h0Z"/>
            <path class="cls-12" d="M185.2,463.1c8.4,3.2,21.2,4.9,26.8,12,4.7,5.9-19.9-3.8-22-5.7-.6-.5-4-1.8-5-3s-2.8-2.8.2-3.2h0Z"/>
            <path class="cls-3" d="M181.7,461.8c17.2,2.3,20.9,3.2,34.8,14-6.3-.9-11.9-4.3-17.6-6.6-5.6-2.3-12.2-3.6-17.2-7.5h0Z"/>
          </g>
          <g>
            <path class="cls-8" d="M125.6,418c4.8,9.8,12.6,22.4,25.3,17.7,12.7-4.7,7.5-21.4,2.8-31.1s-15.4-23.3-26.2-16.7c-11.9,7.2-6.7,20.3-1.9,30.1Z"/>
            <path class="cls-12" d="M132,396.6c3.8,9.4,12,17.4,13.3,27.7,1.1,8.7-14.3-14.6-14.5-18.2,0-1-1.3-4.7-1.3-6.5s-.5-4.9,2.4-3h.1Z"/>
            <path class="cls-3" d="M129.9,393.9c5.1,3.9,7.3,10.6,10.2,15.9,2.9,5.4,7,11.2,7,17.6-3.2-5.7-7.3-10-10.5-15.7-3.2-5.9-4-11.8-6.7-17.8h0Z"/>
          </g>
          <g>
            <path class="cls-7" d="M94.4,331.3c1.6,9.1,4,24.5,17.1,24,13.1-.4,15.5-18,13.5-29.7s-11.2-27-23.1-23c-13,4.3-9.1,19.5-7.5,28.6h0Z"/>
            <path class="cls-12" d="M104.4,312.6c3.8,10,7.7,18.1,5.7,29.7-1.7,9.8-7.9-17.2-7.8-20.9,0-1-.8-4.8-.6-6.6.3-2,.3-5,2.6-2.3h.1Z"/>
            <path class="cls-3" d="M103.1,309.5c7.9,10.2,10.8,23.8,7.3,36.3-1.5-6.1-1.9-12.2-3.2-18.2-1.2-6-3.2-11.9-4.1-18.1h0Z"/>
          </g>
          <g>
            <path class="cls-7" d="M78.5,247c1.1,9.3,2.5,24.9,15.7,25.3s16.8-17.1,15.5-29-9.6-27.9-21.9-24.6c-13.4,3.6-10.4,19.1-9.3,28.4h0Z"/>
            <path class="cls-12" d="M89.8,228.8c3.2,10.3,6.6,18.7,3.8,30.3-2.3,9.8-6.9-17.8-6.5-21.5,0-1-.5-4.9-.2-6.6.4-2,.6-5,2.8-2.2h0Z"/>
            <path class="cls-3" d="M88.7,225.6c7.3,10.8,9.4,24.7,5,37-1.2-6.2-1.1-12.4-2.1-18.6-.8-6.2-2.5-12.2-3-18.5h0Z"/>
          </g>
          <g>
            <path class="cls-7" d="M655.8,482.4c-10.6,4.5-26.5,8-31.6-4.9s10.3-19.2,19.7-23.3,24.2-9.6,29.6,2.1c5.9,12.8-7.1,21.6-17.7,26.1h0Z"/>
            <path class="cls-12" d="M665,463.1c-8.4,3.2-21.2,5-26.7,12-4.7,5.9,19.9-3.8,22-5.8.6-.5,4-1.8,5-3s2.8-2.8-.2-3.2h0Z"/>
            <path class="cls-3" d="M668.5,461.7c-5,3.9-11.6,5.2-17.2,7.5-5.7,2.2-11.3,5.7-17.6,6.6,13.9-10.9,17.6-11.8,34.8-14.1h0Z"/>
          </g>
          <g>
            <path class="cls-8" d="M724.5,417.9c-4.8,9.8-12.5,22.4-25.2,17.7-12.7-4.7-7.5-21.4-2.8-31,4.7-9.7,15.3-23.3,26.2-16.7,11.9,7.2,6.7,20.3,1.9,30.1h-.1Z"/>
            <path class="cls-12" d="M718.2,396.5c-3.8,9.4-12,17.4-13.3,27.7-1.1,8.7,14.2-14.7,14.4-18.2,0-1,1.3-4.7,1.3-6.5s.4-4.9-2.4-3Z"/>
            <path class="cls-3" d="M720.2,393.8c-2.7,6-3.5,12-6.6,17.8-3.2,5.7-7.3,10-10.5,15.7,0-6.5,4-12.3,6.9-17.6,2.9-5.3,5.1-12,10.2-15.9h0Z"/>
          </g>
          <g>
            <path class="cls-7" d="M755.7,331.2c-1.6,9.1-4,24.5-17.1,24-13.1-.4-15.5-17.9-13.5-29.6s11.2-27,23.2-23c13,4.3,9.1,19.5,7.5,28.6h-.1Z"/>
            <path class="cls-12" d="M745.7,312.5c-3.8,10-7.7,18.1-5.7,29.7,1.7,9.8,7.9-17.2,7.8-20.9,0-1,.8-4.8.6-6.5-.3-2-.3-5-2.6-2.3h0Z"/>
            <path class="cls-3" d="M747,309.5c-.9,6.2-2.9,12.1-4.1,18.1-1.3,6-1.7,12.1-3.2,18.2-3.5-12.5-.6-26.1,7.3-36.3h0Z"/>
          </g>
          <g>
            <path class="cls-7" d="M771.7,247c-1.1,9.3-2.5,24.9-15.7,25.3s-16.8-17.1-15.5-29,9.7-27.9,21.9-24.6c13.4,3.6,10.4,19.1,9.3,28.3h0Z"/>
            <path class="cls-12" d="M760.5,228.8c-3.2,10.3-6.6,18.7-3.9,30.3,2.3,9.8,6.9-17.8,6.5-21.5,0-1,.5-4.9.2-6.6-.4-2-.6-5-2.8-2.2Z"/>
            <path class="cls-3" d="M761.6,225.6c-.5,6.3-2.1,12.3-3,18.5-.9,6.1-.9,12.3-2.1,18.6-4.3-12.4-2.2-26.2,5.1-37h0Z"/>
          </g>
          <path class="cls-2" d="M95.7,230.7c-56.6-1.3-113.7-95.5-67.5-121.8,46.3-26.3,127.9-28.1,138.2,8.2,13.8,48.5-14.1,114.9-70.8,113.6h.1Z"/>
          <path class="cls-2" d="M757.3,230.7c56.7-1.3,113.7-95.4,67.4-121.7-46.3-26.3-127.9-28.1-138.1,8.2-13.7,48.5,14,114.9,70.7,113.6h0Z"/>
          <path class="cls-9" d="M238.4,390.2c.9-.4,1.8.7,2.6,1.1-.7,0-2.2-.7-2.6-1-.3-.3,0,0,0,0h0Z"/>
          <g>
            <path class="cls-11" d="M459.8,249.1c0-29,22.7-51.8,51.7-51.8s51.7,22.8,51.7,51.7-22.7,51.8-51.7,51.9c-29,0-51.7-22.8-51.7-51.8h0Z"/>
            <path class="cls-10" d="M563.8,248.9c0,1.8-.2,3.8-.2,5.2-4.5-26.5-24.2-46.5-52-46.4-27.8,0-47.5,20-52,46.5,0-1.5-.3-3.5-.2-5.2,1.8-28.8,22.4-51.8,52.2-51.8s50.4,22.9,52.3,51.7h0Z"/>
            <path class="cls-6" d="M563.3,249.5c-.3-30.4-22.8-52.3-51.8-52-29,.2-51.8,21.1-51.7,52.4,0,31.3,17.2,51.5,52,51.2,30.8-.3,51.8-21.2,51.5-51.6Z"/>
            <path class="cls-3" d="M522.3,249c0,11.2-3.6,30.8-17.7,30.9-14.1,0-17.7-19.7-17.7-30.8s3.6-30.8,17.7-30.9c14.1,0,17.7,19.7,17.7,30.8Z"/>
            <path class="cls-3" d="M511.7,166.3c20-10.3,50.9,3.1,61.1,22.2,3.7,6.9,4.6,14.9,4.4,22.5-.7-3.7-1.6-7.4-2.8-10.9-3.3-10.7-11.2-18.5-20.8-23.9-12.8-6.9-27.1-11.3-42-9.9h0Z"/>
            <path class="cls-3" d="M340.6,166.3c-14.8-1.5-29.2,3-42,9.9-9.6,5.4-17.5,13.2-20.8,23.9-1.2,3.5-2,7.2-2.8,10.9-.2-7.7.7-15.6,4.4-22.5,10.2-19,41.2-32.4,61.1-22.2h0Z"/>
            <path class="cls-11" d="M392,249.1c0-29-22.7-51.8-51.7-51.8s-51.8,22.7-51.8,51.7,22.8,51.8,51.7,51.8,51.8-22.7,51.8-51.7h0Z"/>
            <path class="cls-10" d="M288,248.9c-.1,1.8.1,3.8.2,5.2,4.5-26.5,24.2-46.4,52.1-46.4s47.5,20,52,46.5c0-1.5.3-3.5.2-5.2-1.8-28.8-22.4-51.7-52.2-51.8-29.8,0-50.5,22.8-52.3,51.6h0Z"/>
            <path class="cls-6" d="M288.4,249.5c.3-30.4,22.8-52.2,51.8-52s51.8,21,51.7,52.4c0,31.3-17.3,51.5-52,51.2-30.9-.3-51.8-21.2-51.5-51.6Z"/>
            <path class="cls-3" d="M329.5,249c0,11.2,3.6,30.8,17.7,30.8s17.7-19.6,17.7-30.8-3.6-30.8-17.7-30.8-17.7,19.6-17.7,30.8h0Z"/>
          </g>
        </g>
      </g>
    </g>
  </g>
</svg>